<svg xmlns="http://www.w3.org/2000/svg" viewBox="0 0 100 100">
  <rect width="100" height="100" rx="24" fill="#fde4d4"/>
  <g transform="translate(10,8) scale(0.8)" fill="none">
    <path d="M50 52 C32 46 24 32 27 22 C39 27 47 38 50 52Z" fill="#f3899f"/>
    <path d="M50 52 C68 46 76 32 73 22 C61 27 53 38 50 52Z" fill="#f3899f"/>
    <path d="M50 52 C40 44 37 28 43 19 C49 26 51 39 50 52Z" fill="#e0405a"/>
    <path d="M50 52 C60 44 63 28 57 19 C51 26 49 39 50 52Z" fill="#e0405a"/>
    <path d="M50 52 C45 40 45 25 50 16 C55 25 55 40 50 52Z" fill="#c8102e"/>
    <circle cx="50" cy="45" r="3.4" fill="#ffce6b"/>
    <path d="M16 56 C20 54 26 55 30 58 C33 55 37 56 40 59 C43 56 47 57 50 60 C53 57 57 56 60 59 C63 56 67 55 70 58 C74 55 80 54 84 56 C84 74 68 86 50 86 C32 86 16 74 16 56Z" fill="#ecbf95" stroke="#b9824f" stroke-width="2.4" stroke-linejoin="round"/>
    <g fill="#b00d28"><circle cx="23" cy="56" r="2.6"/><circle cx="35" cy="57.5" r="2.6"/><circle cx="65" cy="57.5" r="2.6"/><circle cx="77" cy="56" r="2.6"/></g>
    <circle cx="50" cy="74" r="2.8" fill="#c8102e"/>
  </g>
</svg>
