<svg xmlns="http://www.w3.org/2000/svg" width="256" height="256" viewBox="0 0 256 256"><path fill="#fdfcfc" d="m213 32 1.707 1.332c24.055 18.977 37.272 51.438 40.852 81.047 3.679 35.006-7.062 68.229-28.848 95.535-21.788 26.564-52.72 41.846-86.595 45.888C104.47 259.145 71.427 247.334 44 225l-1.863-1.488C17.38 203.146 3.919 171.299.198 140.116-3.209 103.79 9.07 70.706 32 43l1.332-1.707C52.712 16.727 85.707 3.799 115.884.198 152.21-3.209 185.294 9.07 213 32"/><path fill="#f8e4e5" d="M127 47c2.113 2.113 3.103 4.172 4.361 6.852C136.551 64.89 143.194 74.904 150 85l1.73-2.309C158.128 74.445 165.835 66.388 176 63l.55 3.332c2.27 13.437 2.27 13.437 4.137 19.793A521 521 0 0 1 182 91l.54 1.906c.273 1.719.273 1.719-.54 5.094-2.285 2.42-4.757 4.54-7.312 6.66-4.126 3.473-8.97 8.156-10.184 13.54L164 120l-3 1v9h1l.5-3.25c3.449-13.556 16.09-25.314 27.64-32.215 7.776-4.174 14.996-7.144 23.86-7.535l-1.379 2.71c-2.313 5.402-2.79 11.135-3.559 16.915-2.971 20.855-9.354 39.894-26.75 53.063-6.41 4.685-13.344 8.529-20.312 12.312 4.987-.544 8.5-2.013 12.75-4.5l1.846-1.07c5.812-3.484 10.64-7.596 15.404-12.43l1.664-1.633c2.541-2.704 4.401-5.407 6.02-8.738 3.273-6.625 5.684-11.392 12.941-13.941 5.942-1.82 11.785-2.832 18-2.875l2.79-.043c2.701.24 4.225.965 6.585 2.23l-1.13 1.19c-4.324 4.767-7.15 9.789-10.058 15.498-8.512 16.037-18.812 25.906-35.796 32.43-2.863.837-5.058 1.068-8.016.882l2.71 1.18c8.597 3.914 15.373 8.362 21.29 15.82v2l-2.387.297c-7.169.984-13.779 2.502-20.64 4.8-10.687 3.244-21.672 2.77-32.254-.44-2.99-.722-5.655-.765-8.719-.657l-.762 1.809c-2.133 3.775-5.734 5.76-9.238 8.191l-2.562 1.938c-3.467 1.51-5.99 1.388-9.438.062-3.504-2.12-6.753-4.51-10-7l-2.3-1.602L109 204v-2l-2.414.402-3.211.536-3.164.527L97 204c-.99.18-1.98.36-3 .547-12.653 1.911-24.218-.511-36.164-4.64-2.635-.843-4.966-1.282-7.711-1.532l-2.367-.227L46 198c4.076-9.125 12.384-13.819 21-18l-2.895-1.031c-17.54-6.479-28.686-16.295-37.293-33.094C23.555 139.613 20.332 133.595 16 128c7.136-3.568 17.398-.316 24.688 1.5l3.029.723q3.645.872 7.283 1.777l-.635-2.215c-2.218-7.79-3.88-15.555-4.826-23.601l-.242-2.005a229 229 0 0 1-.424-3.877C44.363 95.935 43.073 92.87 41 89v-2c18.973 3.921 34.626 11.716 45.824 28.2L88 117l1.207 1.52c3.217 4.49 3.116 9.108 3.297 14.432.506 10.302 4.56 20.09 9.496 29.048h2c-1.338-4.144-2.856-8.152-4.5-12.187-7.171-18.35-5.437-37.441 1.93-55.438 4.481-9.944 10.36-19.136 16.385-28.196C121.724 60.151 124.411 53.68 127 47"/><path fill="#f2a093" d="m213 32 1.707 1.332c24.055 18.977 37.272 51.438 40.852 81.047 3.679 35.006-7.062 68.229-28.848 95.535-21.788 26.564-52.72 41.846-86.595 45.888C104.47 259.145 71.427 247.334 44 225l-1.863-1.488C17.38 203.146 3.919 171.299.198 140.116-3.209 103.79 9.07 70.706 32 43l1.332-1.707C52.712 16.727 85.707 3.799 115.884.198 152.21-3.209 185.294 9.07 213 32M102.939 10.02c-.726.14-1.452.278-2.2.421l-1.906.397c-2.144.19-3.765-.29-5.833-.838-1.922.559-1.922.559-3.75 1.438l-1.86.87L86 13l2 1-2.988 1.242C73.092 20.362 61.936 26.647 52 35l-1.478 1.225C27.136 55.834 11.191 84.543 8.141 115.08 5.644 149.171 15.752 180.997 38 207c12.077 13.693 26.369 23.607 43 31l1.662.757c26.89 12.068 59.232 11.468 86.65 1.493 12.704-4.957 24.192-11.559 34.688-20.25l1.405-1.147c22.448-18.554 38.221-47.454 41.443-76.447.366-5.792.252-11.605.214-17.406q-.008-2.04-.013-4.082-.017-4.959-.049-9.918h1c.316-5.9-.767-10.75-2.5-16.375l-.81-2.645c-9.677-30.466-30.509-56.912-58.823-72.126-23.6-12.08-23.6-12.08-31.957-10.084-2.614.315-4.825-.212-7.41-.707-14.394-2.416-29.267-1.8-43.561.957"/><path fill="#ec0314" d="M127 47c2.605 2.605 3.82 5.651 5.375 8.938 3.14 6.497 6.74 12.525 10.688 18.562 5.288 8.172 9.644 16.332 12.937 25.5l1.086 3.004c5.595 19.275 2.723 40.395-6.617 57.86C145.38 169.346 138.026 178.486 129 183c-7.296-.683-14.784-9.42-19.25-14.687-11.157-14.731-16.712-32.705-14.532-51.16 2.849-19.185 12.017-35.066 22.597-50.974C121.724 60.151 124.411 53.68 127 47"/><path fill="#d70e13" d="m118.594 1.797 2.149-.017q2.244-.014 4.487-.02c2.237-.01 4.472-.04 6.707-.073 33.185-.244 62.882 14.847 86.412 37.618 23.844 24.007 35.967 57.312 35.895 90.762-.488 35.066-16.503 65.864-40.995 90.168-24.231 23.235-57.36 34.602-90.644 33.952-6.3-.207-12.421-.936-18.605-2.187l-1.892-.375c-31.781-6.52-60.847-26.337-78.905-53.246Q22.1 196.692 21 195l-1.89-2.848C13.422 183.046 9.522 173.11 6 163l-.74-2.113C-4.008 132.819 1.237 98.22 13.86 72.22 19.29 61.638 25.963 51.773 34 43l1.449-1.582c5.696-6.128 11.597-11.81 18.426-16.668l1.548-1.124C59.306 21.006 62.44 20.388 67 20c-1.288 3.864-3.543 4.907-6.812 7C53.14 31.705 47.01 37.044 41 43l-1.332 1.303C18.662 65.134 6.893 94.881 6.694 124.207 6.63 143.047 9.056 159.765 17 177l.76 1.739c5.406 12.344 13.225 23.84 23.136 33.017C42 213 42 213 42 215l1.766.781c2.419 1.32 4.015 2.797 5.984 4.719 23.28 20.995 55.638 29.947 86.419 28.7 7.773-.549 15.309-2.23 22.831-4.2l2.017-.519c29.388-7.873 55.42-28.565 70.79-54.628 16.232-28.584 21.589-60.54 13.509-92.564C240.423 79.854 232.676 63.879 221 50l-1.24-1.494C198.371 23.06 167.777 9.099 135 6c-10.642-.688-20.723.345-31.172 2.344-2.984.559-5.782.8-8.828.656l-1-3q2.279-.727 4.563-1.437l2.566-.81c5.806-1.524 11.495-1.918 17.465-1.956"/><path fill="#fb1924" d="m214 88-1.379 2.215c-2.536 5.079-2.824 10.789-3.559 16.347-2.957 20.844-9.335 39.852-26.625 53.126-10.73 7.805-23.166 12.73-35.312 17.875l-1.631.697a576 576 0 0 1-4.611 1.931l-2.707 1.132C136 182 136 182 134 181l1.941-1.469C150.297 168.406 159.517 154.261 162 136q.075-2.969.125-5.937c.747-11.085 9.503-20.561 17.281-27.883C187.42 95.446 202.928 84.31 214 88"/><path fill="#e60112" d="M41 87c18.973 3.921 34.626 11.716 45.824 28.2L88 117l1.207 1.52c2.837 3.96 3.065 7.725 3.23 12.48.611 16.89 8.463 32.36 20.563 44 2.272 1.848 4.527 3.421 7 5-3.64 1.213-4.41.689-7.86-.766l-2.882-1.199-3.008-1.285-2.96-1.238a675 675 0 0 1-5.702-2.42 117 117 0 0 0-4.817-1.918c-1.912-.72-1.912-.72-4.771-2.174-.617-1.945-.617-1.945-1-4-2.258-1.93-2.258-1.93-5.125-3.875q-1.518-1.064-3.031-2.133L76 157c-14.05-10.202-20.795-25.696-25-42 1.354 15.972 10.582 30.759 22.544 41.05A137 137 0 0 0 87 166l-2 1c-7.75-3.428-14.017-9.135-20-15l-2.16-2.05c-12.868-13.166-16.428-32.293-18.07-50.005-.454-4.31-1.766-7.187-3.77-10.945z"/><path fill="#f9101f" d="m130 86 1 2q2.488.56 5 1c1.497 1.497 1.332 2.988 1.563 5.063l.253 2.222L138 98l2-3c6.87 14.377 7.283 30.94 2.656 46.148L142 143h-2l.25 2.188c-.327 3.683-1.71 5.198-4.25 7.812h-2l-1 3c-7.935 1.435-7.935 1.435-12.062-.25L119 154v-3l-4-1c-3.33-11.22-5.482-21.943-5.437-33.687 0-.49 0-.49.007-2.963.343-16.73.343-16.73 4.868-21.287L117 90l1.5-1.812c2.145-1.698 3.85-1.403 6.5-1.188v2z"/><path fill="#b80309" d="M126 185c-9.162 10.989-20.437 18.304-35 20-11.668.954-22.163-1.291-33.164-5.094-2.635-.842-4.966-1.281-7.711-1.531l-2.367-.227L46 198c5.054-11.174 16.01-15.672 26.645-20.102 18.704-6.303 36.09-.111 53.355 7.102"/><path fill="#e60112" d="M193.938 182.625C199.76 186.108 204.68 190.79 209 196v2l-2.387.297c-7.169.984-13.779 2.502-20.64 4.8-13.987 4.246-28.792 2.414-41.66-4.222-6.14-3.329-10.722-7.643-15.313-12.875 2.194-2.194 3.564-2.7 6.465-3.691l2.674-.924 2.798-.947 2.788-.96c16.627-5.712 34.255-4.753 50.213 3.147"/><path fill="#da010d" d="m230.625 126.813 2.79-.043c2.701.24 4.225.965 6.585 2.23l-1.13 1.19c-4.324 4.767-7.15 9.789-10.058 15.498-7.984 15.041-17.613 25.201-33.55 31.746-2.503.626-3.854.409-6.262-.434l2.238-.848c12.435-4.914 24.958-11.36 30.762-24.152l-1.398 1.906c-8.284 10.87-18.684 19.521-32.254 22.719-3.03.403-5.542.544-8.547-.086-3.857-.742-7.697-.901-11.613-1.101l-2.39-.131A1773 1773 0 0 0 160 175c2.366-2.366 4.316-2.998 7.438-4.187 15.148-6.118 25.861-15.35 33.437-29.688 3.073-5.735 5.574-9.459 11.875-11.625 5.88-1.68 11.758-2.644 17.875-2.687"/><path fill="#e80210" d="m37.375 128.813 2.053.5c8.909 2.346 8.909 2.346 11.56 6.077.982 1.698 1.877 3.422 2.762 5.173 8.428 15.61 20.853 24.21 36.583 31.587 1.65.842 3.148 1.792 4.667 2.85l-1.51.076q-2.216.113-4.433.23-2.507.132-5.015.255c-4.03.211-7.889.528-11.855 1.314-8.717 1.06-18.25-5.008-24.906-9.988C41.282 161.925 36.244 156.53 32 150c7.673 12.728 16.012 19.218 29.333 25.181 1.665.818 3.15 1.756 4.667 2.819-11.29-.513-21.253-7.535-28.766-15.557-3.74-4.373-6.51-9.398-9.234-14.443l-.937-1.735a880 880 0 0 1-3.615-6.783c-2.18-4.107-4.62-7.798-7.448-11.482 6.356-3.178 14.8-.814 21.375.813"/><path fill="#fbebeb" d="M157 4c5.528.48 10.394 1.559 15.563 3.563l2.085.804C206.468 20.997 232.163 45.654 246 77c12.832 31.634 13.882 67.334 1.12 99.197C233.977 207.239 209.983 232.39 179 246c-32.496 13.075-68.95 13.927-101.418.18C65.222 240.695 54.484 233.537 44 225l-1.863-1.488C17.38 203.146 3.919 171.299.198 140.116-3.209 103.79 9.07 70.706 32 43l1.332-1.707c5.418-6.868 12.45-11.98 19.418-17.168l1.97-1.481 1.89-1.386 1.686-1.246C60.174 18.896 61.867 18.428 64 18c-2.655 2.862-5.398 5.04-8.618 7.194C35.552 38.524 21.62 57.312 12 79c-.248.545-.497 1.09-.752 1.653C9.584 84.36 8.208 88.125 7 92l-.594 1.862c-9.617 31.784-3.457 66.617 11.788 95.392 2.346 4.108 4.96 7.97 7.806 11.746l1.088 1.46c2.5 3.307 5.14 6.459 7.912 9.54l1.225 1.362c21.506 23.498 52.2 37.95 83.983 39.764 34.338 1.207 67.282-10.12 92.562-33.595 23.798-22.664 39.203-53.45 40.472-86.605.212-9.795-.315-19.304-2.242-28.926l-.375-1.888C246.304 81.044 236.281 61.057 222 45l-2.074-2.508C203.956 23.66 180.704 11.115 157 5z"/><path fill="#d8020d" d="M130 59c2.302.38 3.642.61 5.245 2.36l1.052 1.745 1.204 1.96 1.249 2.123 1.317 2.185a649 649 0 0 1 2.66 4.471c1.156 1.959 2.337 3.9 3.527 5.84 4.681 7.748 8.274 15.58 10.746 24.316l.566 1.978c1.668 6.523 1.732 12.88 1.684 19.585l.023 3.287c-.041 17.236-7.15 33.343-19.335 45.588-3.394 3.287-6.692 6.439-10.938 8.562-7.296-.683-14.784-9.42-19.25-14.687C98.71 153.735 94.082 137.165 95 119c.64-4.238 1.579-7.469 4-11l-.048 2.272q-.077 4.275-.117 8.55a388 388 0 0 1-.061 3.662c-.212 10.077.249 20.471 5.226 29.516l-.875-2.219C99.157 138.21 99.026 126.146 100 114l1-2h2l.113 3.113c.932 20.932.932 20.932 4.887 24.887.37 1.428.697 2.868 1 4.313q.496 2.344 1 4.687l.438 2.227C111 153 111 153 113 154.062l2 .938 1 3c2.851 3.524 6.05 5.343 10.5 6.125 3.502.236 5.207-.217 7.875-2.5l1.336-1.398C137 159 137 159 140 158c1.188-2.562 1.188-2.562 2-5h2l.313-2.75c.687-3.25.687-3.25 2.097-5.102 4.618-6.24 6.001-14.687 6.317-22.285L153 121l2-1c.669 14.135-1.639 25.866-7 39 9.036-21.003 10.635-40.687 2.875-62.437-4.689-11.455-11.334-22.007-18.132-32.31C130 60.09 130 60.09 130 59"/><path fill="#c8010b" d="M42 89c3.36 1.12 3.59 1.492 5.188 4.438l1.042 1.87C49 97 49 97 49 99h2l.227 1.8c1.342 8.461 4.596 16.146 10.773 22.2l.875 2.438c1.423 3.24 3.361 4.39 6.125 6.562a55 55 0 0 1 2.188 3.188C73 138 73 138 75 139v2l1.813.25C79 142 79 142 80.375 143.938c2.165 2.747 4.31 3.178 7.625 4.062v2h4v2h2v2h2v7l2.266-.281c2.734.281 2.734.281 4.656 2.187l1.828 2.594c3.899 5.218 8.276 9.29 13.25 13.5l2 2c-6.27-.846-11.727-3.119-17.506-5.555a448 448 0 0 0-5.457-2.232q-1.733-.723-3.463-1.451l-3.169-1.314C88 169 88 169 87.293 166.948L87 165c-2.258-1.93-2.258-1.93-5.125-3.875q-1.518-1.064-3.031-2.133L76 157c-14.05-10.202-20.795-25.696-25-42 1.354 15.972 10.582 30.759 22.544 41.05A137 137 0 0 0 87 166l-2 1c-7.75-3.428-14.017-9.135-20-15l-2.16-2.05c-12.932-13.231-16.264-32.265-18.158-50.005C44.247 96.027 43.348 92.677 42 89"/><path fill="#fc232c" d="M129 97h2l.75 2.875c1.423 3.558 1.941 3.677 5.25 5.125 1.188 2.063 1.188 2.063 2 4l1 1c.311 3.47.279 6.955.313 10.438l.087 2.912c.07 7.904-1.466 14.738-6.275 21.15-2.622 1.85-5.01 2.755-8.125 3.5l-2-1v-2h-2l-1.059-2.809-1.379-3.629-.697-1.853c-1.752-4.596-1.752-4.596-2.865-5.709a160 160 0 0 1-.187-7.75l-.038-2.172c-.011-4.203.443-7.204 2.225-11.078q.375-2.058.688-4.125c.817-3.534.817-3.534 2.925-4.984 1.887-.766 1.887-.766 3.73-1.32C127 99 127 99 129 97"/><path fill="#ee0215" d="M79 63c9.037 3.837 19.888 10.678 24 20-.316 4.123-2.09 7.612-3.812 11.313C95.746 101.967 93.804 109.828 92 118c-2.203-2.099-3.987-4.274-5.75-6.75-7.381-9.976-7.381-9.976-11.957-12.008C73 98 73 98 72.66 94.926c.194-4.444 1.475-8.512 2.778-12.739C77.32 75.799 78.815 69.702 79 63"/><path fill="#f91a22" d="m176 63 .55 3.332c2.27 13.437 2.27 13.437 4.137 19.793A521 521 0 0 1 182 91l.54 1.906c.273 1.719.273 1.719-.54 5.094-2.285 2.42-4.756 4.537-7.316 6.652-3.295 2.77-5.77 6.04-8.309 9.5C165 116 165 116 163 118l-.364-1.43c-2.318-9-4.707-17.707-8.844-26.065-1.7-3.584-2.133-5.739-.792-9.505 3.401-5.578 15.812-18 23-18"/><path fill="#b80309" d="m195 128 3 1c-.235 10.797-9.627 19.87-17 27-3.508 2.89-7.224 5.473-11 8 13.51-8.322 23.46-18.456 30-33 1.113 1.746 1.113 1.746 2 4-3.952 13.396-17.79 24.489-29.48 30.984-8.226 4.356-16.83 7.95-25.395 11.578l-1.631.698a576 576 0 0 1-4.611 1.931l-2.707 1.132C136 182 136 182 134 181l1.941-1.469c6.735-5.219 13.231-10.475 16.934-18.344 1.216-2.35 1.851-3.062 4.297-4.183a72 72 0 0 1 4.805-1.3c2.41-.839 2.742-1.579 4.023-3.704 1.516-1.027 1.516-1.027 3.25-1.937 5.72-3.133 10.197-6.39 14.75-11.063 3.62-3 3.62-3 6-3v-3c1.489-1.887 3.228-3.36 5-5"/><path fill="#c20109" d="M163 190v2q1.935.479 3.875.938l2.18.527c8.44 1.533 17.015 1.78 25.57 2.097l3.332.131q4.02.157 8.043.307c-15.929 8.137-34.486 12.116-51.992 7.098-10.2-3.722-17.851-8.943-25.008-17.098 2.146-2.146 3.483-2.713 6.313-3.687l2.3-.825c8.231-1.684 18.257 4.749 25.387 8.512"/><path fill="#e1010f" d="M210 91c1.686 5.058.134 10.192-.687 15.375l-.276 1.78C207.71 116.69 206.08 124.907 203 133h-3l-.89 1.95c-6.352 12.793-16.236 22.313-28.11 30.05l-2-1 2.71-1.984c10.131-7.582 19.996-16.224 25.29-28.016.25-2.937.25-2.937 0-5l-2-1-.812 1.938C193 132 193 132 190 133v3c-1.436 1.002-2.88 1.993-4.371 2.91-1.962 1.313-3.452 2.955-5.074 4.656-4.182 3.857-9.145 7.63-14.555 9.434l-.875 1.438c-1.64 2.277-3.497 2.729-6.125 3.562h-3c.81-4.581 1.81-7.961 5.39-11.086a143 143 0 0 1 5.43-3.504C169 142 169 142 170 140l2.063-1.125c3.59-2.292 6.186-5.117 9.07-8.23C183 129 183 129 186 129l.75-1.687c1.48-2.737 3.185-4.99 5.25-7.313h2l1-4 5-1 .332-1.906c1.043-5.632 2.454-10.811 4.668-16.094h2l.938-1.875z"/><path fill="#e60112" d="m91.5 175.625 2.684-.043 2.535.02 2.279.01c2.496.484 3.398 1.468 5.002 3.388-2.237 5.181-4.498 8.415-9.855 10.84A99 99 0 0 1 88 192l-3.023 1.023c-6.113 1.73-12.573 1.766-18.88 2.188l-3.019.226-2.737.184c-2.384.386-3.439.975-5.341 2.379-2.262.195-2.262.195-4.687.125l-2.45-.055L46 198c5.054-11.174 16.01-15.672 26.645-20.102 6.181-2.083 12.39-2.196 18.855-2.273"/><path fill="#f90b1d" d="M41 87c18.983 3.923 34.597 11.718 45.82 28.188L88 117l1.242 1.625c3.67 5.265 3.512 11.16 2.758 17.375-1.023 2.363-1.023 2.363-2 4l-1-4-4-1v-5l-3-1c-1.21-1.305-1.21-1.305-2.375-2.875-2.22-2.82-4.5-4.339-7.625-6.125v-2h-3c-4-4.343-4-4.343-4-7l-1.875-.254C61 110 61 110 59.875 108.223l-.875-2.16c-1.442-3.548-2.54-4.5-6-6.063-2.25-2.625-2.25-2.625-4-5l-1 2-.77-1.496-1.042-1.942-1.02-1.933C44 90 44 90 41 89z"/><path fill="#f1a095" d="m246 107 1 4h2c4.18 31.05-3.687 63.205-22.5 88.438A193 193 0 0 1 222 205l-2.18 2.605C201.5 228.633 178.073 241.708 151 248l-3.027.746C128.142 252.872 106.784 250.13 88 243c1.673-1.364 2.518-2.035 4.714-1.876l1.868.52 2.076.553 2.154.615q2.103.576 4.208 1.145l1.878.53c28.59 6.97 60.517-.784 85.363-15.412 4.858-3.003 9.332-6.452 13.739-10.075l2.578-2.078C228.682 198.155 243.345 168.754 246 140c.116-2.669.118-5.33.098-8l-.005-2.185c-.005-2.272-.018-4.543-.03-6.815q-.008-2.33-.014-4.66-.017-5.67-.049-11.34"/><path fill="#f4081b" d="m130 86 1 2q2.488.56 5 1c1 1 1 1 1.098 2.629L137 97c-4.875-3.75-4.875-3.75-6-6-5.073.552-8.953 1.329-12.5 5.188-2.745 3.634-3.173 6.321-3.5 10.812l-.996 2.77c-1.095 3.522-1.347 6.704-1.317 10.355l.004 1.968c.106 5.423 1.098 10.213 2.653 15.419.606 2.3.789 4.128.656 6.488h2v3l2.375.875C123 149 123 149 125 151c4.295-.081 6.218-.418 9.688-3 6.6-7.68 6.858-16.222 6.625-25.875q-.018-1.851-.03-3.703c-.1-8.875-.1-8.875-1.283-12.422l-2-1 1-10c6.406 6.406 6.413 16.511 6.438 25-.064 8.044-.733 15.367-3.438 23h-2l.25 2.188c-.327 3.683-1.71 5.198-4.25 7.812h-2l-1 3c-7.935 1.435-7.935 1.435-12.062-.25L119 154v-3l-4-1c-3.33-11.22-5.482-21.943-5.437-33.687 0-.49 0-.49.007-2.963.343-16.73.343-16.73 4.868-21.287L117 90l1.5-1.812c2.145-1.698 3.85-1.403 6.5-1.188v2z"/><path fill="#ec8e70" d="M127 47c2.114 2.114 2.97 3.793 4.188 6.5l1.105 2.406L133 58l-1 2c.38 4.249 3.193 7.43 5.563 10.813 13.66 20.122 22.75 42.002 18.687 66.812-1.817 8.674-4.48 16.879-9.25 24.375l-1-2c.89-2.145.89-2.145 2.25-4.812 8.218-17.741 7.96-37.84 1.75-56.188l-1.027-3.09c-3.147-8.343-7.974-15.615-12.797-23.068-2.098-3.286-4.056-6.653-6.02-10.022C129 61 129 61 127 59l-.96 1.879c-3.04 5.767-6.35 11.13-10.04 16.496-12.73 18.778-18.665 40.388-14.54 63.165 1.417 5.892 3.434 11.414 6.27 16.765L109 160l-1 2c-8.988-16.425-10.437-29.927-9.934-48.55C98 111 98 111 97.444 108.885c-.765-3.246.76-6.129 1.931-9.134l.817-2.128c4.491-11.26 10.936-21.386 17.623-31.443 3.91-6.028 6.596-12.5 9.185-19.179"/><path fill="#f1a49d" d="M157 3v1l-2.038-.21c-8.89-.836-17.725-1.027-26.65-1.04l-2.265-.007C115.112 2.73 104.637 3.233 94 6l1 2c4.057-.408 8.092-.851 12.117-1.512C123.491 3.822 138.712 5.136 155 8v2l2 1q-2.532-.216-5.062-.437l-2.848-.247a107 107 0 0 1-6.281-.836c-4.877-.71-9.764-.713-14.684-.73l-3.058-.012c-7.072.054-13.764.728-20.662 2.283-4.152.915-7.165.82-11.405-.021l-2 1 3 1-2.754 1.031C78.741 18.814 66.318 24.297 56 33l-2-1c2.864-4.177 5.899-6.384 10.293-8.887C66 22 66 22 67 20h-3l-1 2-2-2c3.988-3.518 7.736-6.22 12.563-8.437l1.921-.886C101.756-.898 129.088-2.388 157 3"/><path fill="#db000d" d="m127 187 2 2.063c4.882 4.868 9.878 9.684 16 12.937-2.071 4.918-5.737 7.042-10 10l-2.562 1.938c-3.468 1.511-5.988 1.386-9.438.062-4.652-2.775-9.44-5.862-13-10v-2c1.479-1.1 3.01-2.13 4.563-3.125 5-3.379 8.726-7.145 12.437-11.875"/><path fill="#f5d4c7" d="M50 112c1.594 2.173 2.416 4.055 3.078 6.66 2.283 8.581 4.59 16.093 9.922 23.34l1.926 2.695c5.248 7.025 11.505 12.115 18.588 17.215 2.22 1.628 4.35 3.354 6.486 5.09h-2v2c.568.182 1.137.364 1.723.55 4.884 1.59 9.587 3.355 14.277 5.45v1l-1.905.044c-2.928.076-5.855.17-8.782.268l-3.208.102c-5.743.24-10.61.801-16.043 2.649-6.504 1.794-10.803-.54-16.456-3.643C47.27 169.394 35.887 161.376 31 150l1-2 1.504 2.16c8.384 11.898 17.989 21.275 32.375 25.48 2.95.5 5.498.231 8.437-.245 3.573-.526 7.144-.736 10.746-.958l2.062-.131Q89.56 174.15 92 174l-1.326-.623c-8.54-4.049-16.61-7.98-23.674-14.377l-2.035-1.758c-6.516-6.001-11.208-13.57-15.067-21.508C49 134 49 134 47 132l5-1 1.215 2.492C60.039 147.058 69.867 158.762 84 165l-2.746-2.055C65.979 151.355 53.276 137.653 50 118a35 35 0 0 1 0-6"/><path fill="#ba030a" d="m58 134 4 1v3a54.5 54.5 0 0 0 16.309 11.21c1.718.803 3.21 1.603 4.691 2.79v2l1.563.688c2.081 1.12 3.85 2.296 5.75 3.687 3.427 2.5 6.973 4.578 10.687 6.625v2l2.254.262c3.286.883 4.418 2.054 6.683 4.55 3.155 3.334 6.137 5.832 10.063 8.188-3.64 1.213-4.41.689-7.86-.766l-2.882-1.199-3.008-1.285-2.96-1.238a675 675 0 0 1-5.702-2.42 117 117 0 0 0-4.817-1.918c-1.912-.72-1.912-.72-4.771-2.174-.617-1.945-.617-1.945-1-4-2.258-1.93-2.258-1.93-5.125-3.875q-1.518-1.064-3.031-2.133L76 157c-4.743-3.444-8.286-7.42-11.812-12.062l-1.169-1.537c-2.206-3.003-3.798-5.88-5.019-9.401"/><path fill="#ed0316" d="m207 90 2 4-1.812 1.438c-3.894 4.56-4.926 10.218-6.063 16-.457 1.976-.457 1.976-1.125 3.562-2.562 1.313-2.562 1.313-5 2l-1 3c-1.23 1.263-2.465 2.523-3.742 3.738C189 125 189 125 187.5 127.125 186 129 186 129 183.813 130.25c-3.562 2.216-6.106 5.04-8.946 8.105C173 140 173 140 170 140l-1 3c-1.629 1.387-1.629 1.387-3.562 2.688l-1.942 1.324L162 148l-2-1 3-13h2v-2q2.812-1.19 5.625-2.375l3.164-1.336C177 127 177 127 180.316 125.957 183 125 183 125 184.312 123.063L185 121c1.05-3.15 2.307-4.359 4.664-6.594 1.405-1.48 2.44-2.992 3.524-4.719L195 107h2l2-6h2l1-6h2v-2c1.5-1.625 1.5-1.625 3-3"/><path fill="#cc020b" d="M39 157c3.254.394 5.14 1.09 7.938 2.875C54.635 164.49 65.186 165.63 74 165v2l3.035.309c4.13.59 7.627 2.032 11.403 3.754l1.927.853A615 615 0 0 1 95 174v1l-1.51.076q-2.216.113-4.433.23-2.507.132-5.015.255c-4.03.211-7.889.528-11.855 1.314-8.805 1.07-18.308-5.088-25.019-10.102-5.962-4.877-5.962-4.877-8.168-7.773z"/><path fill="#fc1925" d="M129 97h2l.75 2.875c1.423 3.558 1.941 3.677 5.25 5.125 1.188 2.063 1.188 2.063 2 4l1 1c.311 3.47.279 6.955.313 10.438l.087 2.912c.07 7.904-1.466 14.738-6.275 21.15-2.622 1.85-5.01 2.755-8.125 3.5l-2-1v-2h-2l-1.059-2.809-1.379-3.629-.697-1.853c-1.752-4.596-1.752-4.596-2.865-5.709a160 160 0 0 1-.187-7.75l-.038-2.172c-.011-4.203.443-7.204 2.225-11.078q.375-2.058.688-4.125c.817-3.534.817-3.534 2.925-4.984 1.887-.766 1.887-.766 3.73-1.32C127 99 127 99 129 97m-4 7.375c-3.405 3.455-4.022 6.85-4.676 11.55C120 118 120 118 119 119c-.346 5.41-.116 10.7 1 16h2l-.125 2.25c.133 2.931.368 4.407 2.125 6.75 2.625.75 2.625.75 5 1 5.692-6.085 7.143-13.155 7.875-21.25l.186-1.789c.294-4.277-.682-6.478-3.061-9.961-.837-2.314-1.39-4.609-2-7h-2v-3c-2.566 0-3.12.673-5 2.375"/><path fill="#fbeded" d="m104 83 2 1c-.436 3.383-1.465 6.177-2.875 9.25-7.822 17.203-9.97 36.455-3.508 54.47 1.024 2.62 2.138 5.192 3.297 7.757.94 2.184 1.596 4.203 2.086 6.523h-4c-8.93-18.44-8.93-18.44-9.248-28.532C91.3 119.65 83.475 111.398 74 102l-2-1v-3c4.257 1.378 6.993 3.532 10.063 6.688l1.275 1.24c3.286 3.316 5.509 6.945 7.662 11.072l.813-3.375C94.599 102.599 98.532 92.96 104 83"/><path fill="#fa1221" d="M240 129c-3.268 2.705-4.798 3-9 3l-2 5h-2l-1 3-2-1 7-9-2-1-.187 1.813c-1.14 3.069-3.02 3.537-5.813 5.187a57 57 0 0 0-2.375 2.938c-2.7 3.43-5.8 5.084-9.625 7.062l-2.687 1.75c-2.389 1.291-3.65 1.546-6.313 1.25l-1-2-4 2c7.19-15.374 7.19-15.374 11.75-17.75 1.996-.687 1.996-.687 4.25-1.25l2.785-.875c7.737-2.236 16.88-4.387 24.215-.125"/><path fill="#c7020a" d="M98 108h1l-.048 2.272q-.077 4.275-.117 8.55a388 388 0 0 1-.061 3.662c-.241 11.453 1.237 22.085 6.038 32.641l1.395 3.195c2.284 3.415 4.088 4.052 7.793 5.68l2 4c2.938 1.625 2.938 1.625 6 3l1.445 1.066c2.923 1.756 6.264 1.376 9.555.934 2.125-1.312 2.125-1.312 4-3 5.19-3 5.19-3 8-3-2.967 6.78-9.494 12.6-16 16-7.278-.648-14.803-9.44-19.25-14.687C98.718 153.747 94.06 137.156 95 119a50 50 0 0 1 2-8z"/><path fill="#c7010b" d="m195 128 3 1c-.284 6.674-3.078 10.71-7 16l-5.176-.879C184 144 184 144 181 145c-1.187 2.063-1.187 2.063-2 4h-2v2h-3v2c-1.574 1.586-1.574 1.586-3.687 3.375l-2.223 1.887L166 160l-2.625 2.188C155.759 168 155.759 168 153 168l-.812 2.813c-1.588 4.26-2.97 5.579-7.036 7.609l-3.214 1.328-3.223 1.36C136 182 136 182 134 181l1.941-1.469c6.735-5.219 13.231-10.475 16.934-18.344 1.216-2.35 1.851-3.062 4.297-4.183a72 72 0 0 1 4.805-1.3c2.41-.839 2.742-1.579 4.023-3.704 1.516-1.027 1.516-1.027 3.25-1.937 5.72-3.133 10.197-6.39 14.75-11.063 3.62-3 3.62-3 6-3v-3c1.489-1.887 3.228-3.36 5-5"/><path fill="#c9010a" d="m216 156 1 3c-8.536 8.864-20.368 17.512-33.105 18.16-1.895-.16-1.895-.16-4.083-.629-3.86-.73-7.705-.893-11.625-1.094l-2.388-.13A1773 1773 0 0 0 160 175c5.806-5.806 17.433-8.983 25.531-9.008l2.594.07c3.975.092 6.432-.483 9.938-2.261 4.085-1.689 8.588-2.133 12.937-2.801v-2h4z"/><path fill="#d00f10" d="M130 59c2.302.38 3.642.61 5.245 2.36l1.052 1.745 1.204 1.96 1.249 2.123 1.317 2.185a649 649 0 0 1 2.66 4.471c1.156 1.959 2.337 3.9 3.527 5.84 4.681 7.748 8.274 15.58 10.746 24.316l.566 1.978c1.668 6.523 1.732 12.88 1.684 19.585l.023 3.287c-.032 13.462-4.276 28.75-13.273 39.15-2.184.266-2.184.266-4 0l.938-2c1.293-3.651 1.7-7.16 2.062-11h2l-.25-1.812C147 151 147 151 149 149.25l2-1.25c-.486 3.123-.999 5.996-2 9 8.842-21.333 9.376-42.112.57-63.625-4.607-10.222-10.665-19.783-16.827-29.123C130 60.092 130 60.092 130 59"/><path fill="#f1a293" d="M162.883 10.18c30.571 9.48 56.898 30.79 72.247 58.888a155 155 0 0 1 9.933 23.62l.655 1.96c1.253 4.117 1.326 7.076.282 11.352-1.654-2.963-2.649-5.976-3.596-9.227C236.587 76.863 227.508 59.935 213 45l-2.258-2.48C196.597 27.464 177.41 18.308 158 12c1.747-1.483 2.559-2.042 4.883-1.82"/><path fill="#e0040e" d="M42 89c3.36 1.12 3.59 1.492 5.188 4.438l1.042 1.87C49 97 49 97 49 99h2l.227 1.8c1.203 7.588 3.917 15.344 9.464 20.891C62 123 62 123 62 125c-4.725-1.575-7.775-3.653-10.113-8.133L51 115c1.354 15.972 10.582 30.759 22.544 41.05A137 137 0 0 0 87 166l-2 1c-7.75-3.428-14.017-9.135-20-15l-2.16-2.05c-12.932-13.231-16.264-32.265-18.158-50.005C44.247 96.027 43.348 92.677 42 89"/><path fill="#fb232b" d="M202 90c-1.599 3.925-3.858 6.232-7 9q-1.996.515-4 1a90 90 0 0 0-2 4l-3 1c-1.016 1.836-1.016 1.836-2 4-3.379 4.824-6.17 7.75-12 9l.375 1.75C172 122 172 122 170.699 123.016q-1.645.99-3.297 1.968C166 126 166 126 165.125 128.25L165 130h2v2h-2v2h-2c-1.437-7.699.901-12.607 5.1-18.81 6.774-9.5 14.735-16.436 24.9-22.19l1.922-1.094C197.515 90.52 199.003 90 202 90"/><path fill="#e1030f" d="M175 76c2.226 2.654 2.186 4.604 2.063 8-.13 4.084.233 7.622 1 11.625.38 3.564.317 4.856-1.825 7.785a122 122 0 0 1-4.867 4.442c-3.256 2.95-5.293 6.315-7.371 10.148-2.645-2.645-2.96-5.397-3.687-8.937l-.432-1.92c-.681-3.224-.942-4.959.119-8.143 1.875-.625 1.875-.625 4-1l3-1 1-5h2v-2l2-1c.598-2.687.598-2.687 1.063-6 .842-5.905.842-5.905 1.937-7"/><path fill="#dd020e" d="m75 84 2 2 2-1c3 5.75 3 5.75 3 8l1.688.688c2.515 1.427 4.013 3.01 5.87 5.19C91 100 91 100 96 101l-4 17c-2.254-2.254-3.933-4.198-5.75-6.75-3.312-4.477-7.078-9.378-11.937-12.246L73 98c-.503-5.132.41-9.13 2-14"/><path fill="#f00216" d="m229 129 3 1-1.46 1.793-1.915 2.394-1.898 2.356c-1.71 2.432-2.688 4.688-3.727 7.457-1.5 1.813-1.5 1.813-3 3h-2v2l-1.937.313L214 150l-1 3c-2.5 1.625-2.5 1.625-5 3l-1 1c-1.798.278-3.596.447-5.406.621L200 158l-1 2c-4.368.924-7.635 1.19-12 0 3.293-4.052 6.594-7.72 10.703-10.957C199 148 199 148 201 146l1 3c8.475-3.56 15.274-7.18 21.75-13.75C226 133 226 133 228 132z"/><path fill="#f50d1e" d="M154 176c15.673-.706 31.879.408 45 10 1.285 1.684 1.285 1.684 2 3l-1 1c-12.083-.075-28.365-1.964-37.75-10.187-2.729-2.199-4.807-2.493-8.25-2.813z"/><path fill="#fae9ea" d="M151 84c8.207 10.082 10.636 23.57 13 36l-3 1v9l2 1c-.566 10.263-2.662 18.796-7.312 27.938l-.823 1.685c-2.292 4.278-4.53 5.622-8.865 7.377 1.16-3.27 2.648-6.191 4.375-9.187 8.773-15.574 10.594-34.991 6.394-52.417-1.59-5.617-3.672-11.05-6.132-16.345-.75-2.414-.46-3.696.363-6.051"/><path fill="#ec0415" d="M175 63h1l.55 3.332c2.27 13.437 2.27 13.437 4.137 19.793 1.215 4.144 1.6 7.572 1.313 11.875l-4 2c-1.646-6.643-2.173-12.787-1.973-19.629C176 78 176 78 175 77l-2 12-3 1v2h-2l-.25 2.313C167 97 167 97 165.25 98.813c-2.622 1.383-4.327 1.43-7.25 1.187-.375-2.25-.375-2.25 0-5 1.435-.934 2.875-1.861 4.348-2.734C170.32 86.158 172.49 72.199 175 63"/><path fill="#fa101f" d="M18 127c6.81-.52 12.782.172 19.375 1.813l2.053.5c4.803 1.264 9.24 2.476 11.935 6.949l.95 2.425.988 2.45L54 143l-4 4c-13.169-6.112-13.169-6.112-17-11l-1-3c-1.629-1.168-1.629-1.168-3.562-2.187l-1.942-1.043L25 129v2l-4-1v-2z"/><path fill="#f5071a" d="M25 129c3.354.599 5.461 1.724 8 4l1 3a499 499 0 0 0 4 3v2l3.188.813c2.584.72 4.221 1.438 6.562 2.875L50 146l3-1v-2h2c4.079 6.074 4.079 6.074 3.75 9.938L58 155l-8 1-1-2q-2.496-1.01-5-2c-2.312-1.5-2.312-1.5-4-3v-2l-3-1v-2l-1.77-.762c-2.51-1.394-4.022-2.9-5.917-5.05l-1.825-2.02c-1.658-2.416-2.11-4.286-2.488-7.168"/><path fill="#fb212a" d="M62 94c11.864 4.362 21.857 15.461 27.938 26.25 1.107 2.866 1.242 3.962.062 6.75-2.312-.187-2.312-.187-5-1-1.938-2.63-2.967-4.901-4-8a178 178 0 0 0-4-2c-2.25-2-2.25-2-4-4v-2l-3-1v-2h-2c-1.602-1.78-1.987-2.776-2.125-5.187L66 100h-2z"/><path fill="#f40419" d="M55 101c1.813.563 1.813.563 4 2 .89 1.78 1.56 3.554 2.191 5.441C62 110 62 110 65 111c4 4.457 4 4.457 4 7h3q1.014 1.49 2 3l1.875.938c2.595 1.297 4.222 2.887 6.125 5.062v2l4 1-1 5c-4.444-1.09-6.832-1.694-10-5l-2.937-.875c-3.69-1.355-4.979-2.839-7.063-6.125v-3l-1.894-.28C61 119 61 119 59.996 117.45l-.7-1.977-.78-2.15-.766-2.26-.812-2.249C55 103.363 55 103.363 55 101"/><path fill="#bc1313" d="M118 193c-7.48 8.155-19.583 11.282-30.309 12.32C76.28 205.71 65.716 202.671 55 199v-2l2.621.438c18.413 2.819 38.76 4.715 55.578-4.665C115 192 115 192 118 193"/><path fill="#f0988b" d="m88 8 3 1-1 3h1l3 1-2.754 1.031C78.741 18.814 66.318 24.297 56 33l-2-1c2.864-4.177 5.899-6.384 10.293-8.887C66 22 66 22 67 20h-3l-1 2-2-2c7.062-6.505 14.363-10.436 24.066-10.86C87 9 87 9 88 8"/><path fill="#e46b58" d="M123 57h2c-.526 4.985-2.882 8.351-5.562 12.438q-1.367 2.134-2.727 4.273l-1.38 2.167c-1.998 3.186-3.899 6.422-5.769 9.685l-.96 1.656c-8.953 15.721-10.81 38.14-6.586 55.668 1.448 5.045 3.256 9.781 5.714 14.418L109 160l-1 2c-8.988-16.425-10.437-29.927-9.934-48.55C98 111 98 111 97.444 108.885c-.765-3.246.76-6.129 1.931-9.134l.817-2.128c4.804-12.044 11.848-22.944 18.96-33.731 1.448-2.265 2.72-4.458 3.848-6.891"/><path fill="#fa1522" d="M55 91c3.272.873 5.49 1.474 7.875 3.938C64 97 64 97 64 100h2l2 7h2c1.55 1.574 1.55 1.574 3.313 3.688a127 127 0 0 0 10.437 10.937C85 123 85 123 86 126c2.063.688 2.063.688 4 1l1-4c1.79 1.79 1.173 4.397 1.188 6.813l.042 3.207c-.224 2.9-.728 4.528-2.23 6.98l-1-4-4-1 .125-2.25c-.223-4.913-2.337-7.114-5.824-10.457a42.2 42.2 0 0 1-6.364-8.043C72 113 72 113 69 112v-2h-3c-1.047-1.44-2.086-2.891-3.016-4.41C62 104 62 104 60.25 101.812 59 100 59 100 59 97h-2z"/><path fill="#db020e" d="M32 148c5.917 1.76 11.414 4.396 17 7v2h9v2c2.75 1.125 2.75 1.125 6 2l4-2 10 7-4 1v-2l-1.477.324c-8.752 1.48-18.624-.051-26.085-5.012l-1.692-1.324C43 158 43 158 40.492 158.133 38 158 38 158 36.2 156.066l-1.511-2.504-1.551-2.496C32 149 32 149 32 148"/><path fill="#d3030d" d="M103 178q2.159.427 4.313.875l2.425.492c2.145.6 3.513 1.286 5.262 2.633a1762 1762 0 0 1-6.375 3l-1.828.867C102.227 188 102.227 188 100 188v2c-8.248 3.83-15.87 6.92-25 8v2a777 777 0 0 1-6.75-.375c-.634-.03-1.268-.062-1.922-.094-3.558-.222-6.279-.637-9.328-2.531l1-2c2.114-.379 2.114-.379 4.883-.562l3.039-.227 3.203-.211c8.705-.586 15.973-1.746 24.125-4.937l2.516-.965c3.711-1.824 4.976-3.404 6.421-7.286z"/><path fill="#fb1b23" d="M84 66c7.555 4.009 15.128 9.07 19 17 0 3.9-1.511 6.078-4 9-2.437-1.125-2.437-1.125-5-3-.812-3.187-.812-3.187-1-6h-2c-4.665-4.542-6.665-8.859-6.992-15.312z"/><path fill="#f80d1e" d="M101 176v1l-1.68.078-2.195.172-2.18.14L93 178l-.973 2.012L91 182c-2.066.504-2.066.504-4.562.563-3.473.207-6.267.599-9.5 1.875C69.97 187.012 62.34 187.284 55 188c4.317-4.718 9.134-6.678 15-9l2.46-.984c9.19-3.073 18.978-2.29 28.54-2.016"/><path fill="#f90d1f" d="m197 99 1 2a68 68 0 0 1-2.687 5.813c-.258.52-.515 1.042-.78 1.58-1.816 3.574-3.833 6.632-6.533 9.607h-2l-.25 1.75c-1.277 3.832-3.944 5.783-7.371 7.77l-2.816 1.293-2.81 1.332c-3.059.95-4.717.753-7.753-.145 3.446-4.8 3.446-4.8 6.25-5.812L173 124l.215-1.89c.785-2.11.785-2.11 2.851-3.157l2.496-.703 2.504-.734L183 117v-2h2l.813-1.687c2.523-4.914 4.775-7.92 9.187-11.313 1.313-1.75 1.313-1.75 2-3"/><path fill="#d71b1f" d="M252 109h1c2.257 17.595 2.076 36.145-4 53l-4-1 .875-5.25.547-3.367c.347-2.033.724-4.062 1.156-6.078 2.109-10.332 1.604-20.81 1.422-31.305l2-1c.625-2.562.625-2.562 1-5"/><path fill="#faebec" d="m203 130 3 2c-4.992 16.614-17.421 29.07-32.396 37.176-7.673 3.943-7.673 3.943-11.042 3.512L161 172l1.258-.777c4.663-2.898 9.3-5.834 13.93-8.786l1.799-1.138c5.932-3.795 10.732-7.76 15.013-13.362l1.316-1.71c3.79-5.078 6.424-10.292 8.684-16.227"/><path fill="#df3f30" d="m206 101 3 1c.141 5.162-.324 9.875-1.312 14.938l-.404 2.119c-.97 4.881-2.284 9.371-4.284 13.943h-3l-.89 1.95c-6.352 12.793-16.236 22.313-28.11 30.05l-2-1 2.71-1.984C188.968 149.109 198.132 135.06 203 114l.91-3.844q1.072-4.572 2.09-9.156"/><path fill="#b70409" d="M139 184c2.196 1.191 4 2.465 6 4v2l2.375.375C150 191 150 191 152 193c2.375.78 4.714 1.48 7.125 2.125.659.182 1.317.364 1.996.55q2.438.67 4.879 1.325l-2 3c-9.152-.223-17.37-2.913-25-8l-2.937-.812c-3.798-1.473-4.808-2.892-7.063-6.188 3.791-1.842 5.976-2.374 10-1"/><path fill="#d2060b" d="m119.016 1.867 2.235-.003q2.319 0 4.639.006 3.551.005 7.102-.007 2.262 0 4.524.004l2.14-.006c3.06.015 5.417.163 8.344 1.139v2c-2.686 1.343-4.684 1.062-7.687.992q-1.767-.03-3.533-.056l-1.872-.032c-11.402-.174-22.061.472-33.26 2.815-2.228.38-4.394.385-6.648.281l-1-3q2.279-.727 4.563-1.438l2.566-.808c5.97-1.568 11.751-1.905 17.887-1.887"/><path fill="#d3020d" d="m200 120 2 1-3 10-4-3-.812 1.938C193 132 193 132 190 133v3c-1.436 1.002-2.88 1.993-4.371 2.91-1.962 1.313-3.452 2.955-5.074 4.656-4.182 3.857-9.145 7.63-14.555 9.434l-.812 1.438c-1.854 2.438-4.325 2.753-7.188 3.562.688-2.875.688-2.875 2-6 2.563-1.25 2.563-1.25 5-2l1-2h2v-2c1.863-1.508 1.863-1.508 4.313-3.125l2.425-1.633C177 140 177 140 180 140l1-3c2.602-1.648 3.862-2 7-2l.688-1.625c2.858-5.172 7.102-9.286 11.312-13.375"/><path fill="#e10810" d="m234 130 2 1c-6.609 18.183-17.859 35.676-35.64 44.277-7.268 3.156-7.268 3.156-11.36 1.723l2.238-.848c12.435-4.914 24.958-11.36 30.762-24.152l-3 3-1-4h3l-.375-2.5c-.045-4.69 3.23-8.29 6.375-11.5h2l.813-2.375c1.172-2.592 1.717-3.39 4.187-4.625"/><path fill="#f0bfab" d="m224 147 1 2c-6.6 13.937-17.871 21.085-31.463 27.181C192 177 192 177 190 179c-4.57.67-9.044.068-13.5-1-15.52-3.223-28.048.07-42.5 6l-2-2 1.385-.507a344 344 0 0 0 11.7-4.571l2.63-1.078q2.699-1.11 5.39-2.235l2.606-1.062 2.353-.974C160 171 160 171 162 172v2l2.93.184 1.895.122q2.067.132 4.135.255c3.785.237 7.426.664 11.165 1.314 10.081 1.037 21.271-5.956 28.875-11.875 5.291-5.02 9.412-10.67 13-17"/><path fill="#bf0209" d="M89 159c4.288 1.56 8.092 3.68 12 6v2l2.254.262c3.286.883 4.418 2.054 6.683 4.55 3.155 3.334 6.137 5.832 10.063 8.188-3.64 1.213-4.41.689-7.86-.766l-2.882-1.199-3.008-1.285-2.96-1.238Q99.137 173.77 95 172l-2.264-.967A2811 2811 0 0 1 88 169v-2c5.75.875 5.75.875 8 2l-1-3 2-1-2.875-.75C91 163 91 163 89.625 160.875z"/><path fill="#d50d12" d="M166 247c-2.266 1.691-4.195 2.431-6.95 3.035l-2.321.514-2.417.513-2.357.526c-8.189 1.782-16.014 2.578-24.393 2.537l-2.408.012c-5.445-.01-10.756-.428-16.154-1.137v-1c3.966-.723 7.808-1.165 11.836-1.316l3.223-.127 3.316-.12 3.387-.13q4.119-.159 8.238-.307v-1c3.182-.736 6.37-1.434 9.563-2.125l2.712-.629c5.645-1.2 9.324-1.365 14.725.754"/><path fill="#ee0216" d="M161 177c1.23 1.224 2.456 2.452 3.627 3.733 2.415 2.228 5.276 3.017 8.373 3.954l1.983.628c8.833 2.686 17.773 4.048 27.017 3.685l1 2c-25.7.85-25.7.85-37.098-5.094-2.564-1.221-5.104-1.524-7.902-1.906v-2l-3.312-1.125-1.864-.633C151 180 151 180 149.27 180.945L148 182l-3-3c5.057-2.13 10.577-3.229 16-2"/><path fill="#d97156" d="M135 191c5.092.402 8.794 2.287 13.242 4.746 8.702 3.957 17.39 3.492 26.758 3.379q2.185-.016 4.371-.027 5.315-.035 10.629-.098c-5.93 3.06-11.262 3.134-17.812 3.063l-2.39-.014Q166.9 202.03 164 202v2h13v1c-12.036.48-22.235-.744-33.062-6.437l-1.663-.874c-3.213-1.797-5.3-3.579-7.275-6.689"/><path fill="#d4010d" d="m53 118 1 2 3 1v2l2.25.688c3.327 1.587 4.562 3.372 6.75 6.312 2.342 2.492 4.829 4.838 7.313 7.188C75 139 75 139 75 141l1.813.25C79 142 79 142 80.375 143.938c2.165 2.747 4.31 3.178 7.625 4.062v2h4v2h2v2h2v2c-6.001-1.334-9.92-3.525-14.312-7.812-3.857-3.66-7.627-6.69-12.325-9.25L68 138v-2h-3v-2l-1.875-.75C61 132 61 132 60.063 130c-1.461-2.75-3.176-3.088-6.063-4z"/><path fill="#be050a" d="M41 160c2.152 1 3.906 1.916 5.688 3.5 2.91 1.888 5.611 2.355 8.996 2.973C58 167 58 167 60.364 167.996c3.646 1.389 7.311 1.759 11.171 2.215 1.498.2 2.984.488 4.465.789l1 2c2.063 1.125 2.063 1.125 4 2-9.448 3.04-15.998 1.469-25.023-2.473C49.939 169.43 44.91 165.567 41 160"/><path fill="#f51020" d="m121 204 3 1a75 75 0 0 0 4.375-.687c4.128-.553 4.128-.553 6.324.507 1.363 1.118 1.363 1.118 3.301 3.18-1.264 3.792-2.626 4.464-6.047 6.258-3.245 1.233-5.817.992-8.953-.258-3.138-1.823-6.086-3.84-9-6l1-2h2v2z"/><path fill="#ef0318" d="m92 177 3 1-2 5h-3v2c-12.006 4.868-23.17 6.372-36 6v-3l1.94-.335q4.375-.764 8.748-1.54l3.052-.527 2.96-.528 2.713-.476c2.676-.614 5.051-1.553 7.587-2.594 2.676-.414 2.676-.414 5.313-.625l2.675-.227L91 181z"/><path fill="#f8111e" d="M79 63c2.402.633 2.402.633 5 2 1.004 2.68 1.004 2.68 1.563 5.875.852 4.787 1.85 6.854 5.437 10.125v2h2l.75 2.875C95 89 95 89 97.125 90.375L99 91l-1 6c-2-2.75-2-2.75-2-5h-2v-2h-2v-2h-3c-2.524-4.932-4.87-9.886-7-15l-3 11-3-1 .402-1.836C77.676 75.123 78.502 69.153 79 63"/><path fill="#ea0417" d="M72 131c4.045-.368 6.703.54 10.29 2.207 1.495.693 3.038 1.284 4.585 1.856C89 136 89 136 90 138l2-2 .503 1.541q1.151 3.512 2.31 7.022l.79 2.423c1.584 4.789 3.339 9.41 5.397 14.014l-2 1-3-1c-1.125-4.75-1.125-4.75 0-7h-2v-2h-2v-2h-4l-2-4h6c-4.727-4.481-8.83-7.815-15-10v-2h-2v-2z"/><path fill="#c80b0c" d="M98 108h1l-.048 2.272q-.077 4.275-.117 8.55a388 388 0 0 1-.061 3.662c-.24 11.417 1.16 22.048 6.101 32.516l1.43 3.125c1.915 3.248 3.935 5.33 6.695 7.875l-1 2c-4.282-1.481-5.911-4.537-8-8.312l-1.055-1.88c-7.267-13.42-10.88-30.295-6.48-45.222L97 111z"/><path fill="#db010e" d="M142 180c3.856-.22 6.492.396 10 2v2l1.828.113 2.422.2 2.39.175c2.36.512 2.36.512 4.2 1.895 2.952 2.21 5.963 3.131 9.472 4.18l2.186.655c9.94 2.737 20.25 3.202 30.502 3.782v1c-30.368.506-30.368.506-42-4l-1-2a102 102 0 0 0-6.125-2.375c-4.941-1.81-9.401-3.816-13.875-6.625z"/><path fill="#bf1818" d="M49 118h2l.629 2.387C57.597 141.489 69.149 153.762 87 166l-2 1c-7.75-3.428-14.017-9.135-20-15l-2.16-2.05c-7.85-8.032-13.444-18.963-13.867-30.29z"/><path fill="#fbe8e8" d="M157 4c5.528.48 10.394 1.559 15.563 3.563l2.085.804c17.627 6.996 35.665 18.104 48.04 32.696l1.734 2.042L226 45l1.328 1.55C230 49.74 230 49.74 230 52c-3.843-1.513-5.592-3.749-8.062-7C205.522 24.264 181.858 12.534 157 5z"/><path fill="#d5050a" d="M227 198h1c.58 5.027.58 5.027-.87 7.459-1.273 1.505-2.607 2.901-4.005 4.291l-1.5 1.55a375 375 0 0 1-3.098 3.15 181 181 0 0 0-4.273 4.515q-1.282 1.362-2.566 2.722l-2.301 2.45c-2.818 2.2-4.866 2.563-8.387 2.863 1.604-4.233 4.618-6.546 7.938-9.437 5.403-4.822 10.159-9.93 14.722-15.55A268 268 0 0 1 227 198"/><path fill="#d3010b" d="m169 194 37 2c-3.621 1.81-7.14 3.214-10.937 4.563-.608.22-1.216.442-1.842.67-6.81 2.43-12.825 2.9-20.034 2.83l-2.677-.014q-3.255-.018-6.51-.049v-2l1.465-.06c2.22-.096 4.44-.205 6.66-.315l2.305-.094c4.553-.235 8.321-.861 12.57-2.531l-3.43-.586-4.445-.789-2.262-.383-2.168-.39-2-.35C171 196 171 196 169 194"/><path fill="#cb1415" d="M200 131c1.113 1.746 1.113 1.746 2 4-3.725 12.626-16.802 23.852-27.903 30.065-3.973 2.108-8.011 4.055-12.097 5.935l-2-2q2.091-1.193 4.188-2.375l2.355-1.336C169 164 169 164 171.469 163.09 184.96 157.282 193.766 143.605 200 131"/><path fill="#f70a1d" d="M227 129h2c-.187 1.813-.187 1.813-1 4a393 393 0 0 1-5 3 57 57 0 0 0-2.375 2.938c-2.7 3.43-5.8 5.084-9.625 7.062l-2.687 1.75c-2.389 1.291-3.65 1.546-6.313 1.25l-1-2-4 2 7-12 3 1-1 5c1.441-.426 2.878-.866 4.313-1.312l2.425-.739c2.413-1.012 3.509-2.047 5.262-3.949 1.764-1.288 3.565-2.502 5.379-3.719C225 132 225 132 226.089 130.344z"/><path fill="#e61f21" d="M130 59c2.302.38 3.642.61 5.245 2.36l1.052 1.745 1.204 1.96 1.249 2.123 1.317 2.185a649 649 0 0 1 2.66 4.471c1.156 1.959 2.337 3.9 3.527 5.84 3.495 5.784 6.497 11.605 8.871 17.941.225.58.45 1.16.68 1.758.964 2.765 1.34 4.225.312 7.015L155 108h-1l-.559-2.465c-3.53-14.374-10.872-26.722-19.254-38.802l-1.218-1.756-1.08-1.53C131 62 131 62 130 59"/><path fill="#fb2529" d="m165 69 2 1c-.47 4.928-2.019 8.15-5 12-.43.565-.861 1.13-1.305 1.71-2.472 3.117-2.472 3.117-3.695 4.29h-2l-1 2c-1.476-2.345-2.04-3.596-1.762-6.39C154.04 77.44 159.924 72.691 165 69"/><path fill="#fa1322" d="M199 186v1c-19.86-.487-19.86-.487-27.562-7.25L170 178c10.166-3.186 20.347 3.276 29 8"/><path fill="#e60110" d="m223 140 2 1a294 294 0 0 1-2.375 3l-1.336 1.688L220 147h-2v2l-1.937.313L214 150l-1 3c-2.5 1.625-2.5 1.625-5 3l-1 1c-1.798.278-3.596.447-5.406.621L200 158l-1 2c-4.368.924-7.635 1.19-12 0 6.15-7.483 6.15-7.483 10-10v4c2.668.526 5.276.968 8 1 1.813-1.437 1.813-1.437 3-3h3v-2l5-2v-2a791 791 0 0 1 5-3c1.313-1.687 1.313-1.687 2-3"/><path fill="#dc020f" d="M102 184c-4.4 4.07-8.285 6.263-14 8l-3.02 1.02c-6.113 1.734-12.574 1.769-18.882 2.19l-3.02.227-2.737.184c-2.384.386-3.439.975-5.341 2.379-2.262.195-2.262.195-4.687.125l-2.45-.055L46 198l2-4 1.937-.06c2.959-.097 5.917-.206 8.876-.315 1.004-.03 2.01-.062 3.044-.094 6.065-.234 11.83-.878 17.775-2.115 2.184-.384 4.157-.495 6.368-.416v-2l9-2v-2c3.625-2.125 3.625-2.125 7-1"/><path fill="#bd050b" d="M206 167c-5.727 6.261-13.634 9.46-22.05 10.02A25.2 25.2 0 0 1 177 176c3.72-3.322 7.983-4.575 12.625-6.125l4.602-1.57 2.049-.688c3.843-1.375 5.556-1.432 9.724-.617"/><path fill="#f0081b" d="m178 126 2 1c-1.835 1.909-3.657 3.735-5.754 5.355-5.48 4.268-5.48 4.268-6.371 8.27-1.102 4.25-2.316 5.034-5.875 7.375l-2-1 3-13h2v-2l2.59-1.059 3.347-1.379 1.71-.697c4.24-1.752 4.24-1.752 5.353-2.865"/><path fill="#d4080c" d="M92 245c3.926.44 7.82.924 11.691 1.719 12.057 2.458 24.028 2.986 36.309 3.281v1q-7.387.329-14.777.592-2.506.095-5.012.207c-19.843.885-19.843.885-29.211-3.799z"/><path fill="#ce020b" d="M140 181c8.097 1.337 15.779 5.189 23 9v2l6 1v2l3.176.367 4.137.508 2.091.238 2.022.254 1.856.222C184 197 184 197 187 199l-8 1v-2l-12-1v-2l-1.875-.375C163 194 163 194 161 192a70 70 0 0 0-4.625-1.375c-4.79-1.358-9.021-3.23-13.375-5.625v-2l-3-1z"/><path fill="#eaab89" d="M50 112c1.594 2.173 2.416 4.055 3.078 6.66 2.283 8.581 4.59 16.093 9.922 23.34l1.926 2.695c5.248 7.025 11.505 12.115 18.588 17.215 2.22 1.628 4.35 3.354 6.486 5.09l-4 1v-2c-1.577-1.25-3.215-2.424-4.875-3.562-14.962-10.583-26.988-24.332-30.89-42.715-.356-2.613-.367-5.09-.235-7.723"/><path fill="#fceded" d="m179 99 2 1c-1.321 2.982-2.684 4.797-5.125 6.938-3.312 3.221-5.803 6.671-8.25 10.562l-1.047 1.617c-2.413 3.96-3.17 7.267-3.578 11.883l-3 1v-13l4 1 .125-2c2.268-7.775 9.177-13.563 14.875-19"/><path fill="#fb1926" d="M18 127c6.889-.525 12.896.205 19.563 1.875l2.128.526c5.042 1.332 5.042 1.332 7.309 3.599l-3 1v2c-3.355.181-5.377.21-8-2v3l-3-1-1-3c-1.629-1.168-1.629-1.168-3.562-2.187l-1.942-1.043L25 129v2l-4-1v-2z"/><path fill="#cd040c" d="M127 187c4.875 4.75 4.875 4.75 6 7-2.59 2.59-4.027 2.374-7.625 2.625l-3.04.227L120 197v3h-2l-2 5h-2l-1 2c-1.5-1.375-1.5-1.375-3-3v-2c1.479-1.1 3.01-2.13 4.563-3.125 5-3.379 8.726-7.145 12.437-11.875"/><path fill="#f29f89" d="m179 235 3 2c-14.56 7.146-31.48 13.741-48 12v-1l7-1v-1l1.582-.272c12.63-2.22 24.871-4.954 36.418-10.728"/><path fill="#d82822" d="M26 139c3.69 3.162 5.505 7.191 6.773 11.824 1.486 3.846 3.482 6.22 6.29 9.176l1.494 1.59C47.95 169.26 56.187 173.247 66 177c-4.3 1.62-7.165.115-11.216-1.618-11.562-5.248-20.047-14.485-25.721-25.632l-.93-1.827c-1.479-3.056-2.548-5.499-2.133-8.923"/><path fill="#c6010a" d="M116 182c-1 3-1 3-3.812 4.5l-1.52.656C109 188 109 188 107.184 189.473c-2.68 1.875-5.163 2.581-8.309 3.464-4.215 1.21-8.218 2.563-12.25 4.313-4.128 1.727-7.181 2.136-11.625 1.75l-1-2 3-.516c12.837-2.318 12.837-2.318 18.484-5.714C97 190 97 190 100 190v-2c13.369-6 13.369-6 16-6"/><path fill="#e60210" d="M81 77h2l.332 2.52.48 3.293.458 3.269c.767 3.067 1.425 3.907 3.73 5.918.688 2.688.688 2.688 1 5l7 2v2c-6.135-.24-6.135-.24-8.437-2.262C86.318 97.195 85.159 95.608 84 94a149 149 0 0 0-6.25-6.062C76 86 76 86 76 83h2z"/><path fill="#ef0215" d="M25 131c4.423 2.996 8.434 6.002 12 10v2l1.938.375L41 144l1 2 1.938.938C46 148 46 148 46.918 149.488c1.67 2.335 3.641 2.554 6.328 3.239 2.15.335 3.738.08 5.754-.727l-1 3-8 1-1-2q-2.496-1.01-5-2c-2.312-1.5-2.312-1.5-4-3v-2l-3-1v-2l-1.77-.754c-2.543-1.421-4.024-2.978-5.917-5.184l-1.825-2.09C26 134 26 134 25 131"/><path fill="#fa0f1f" d="M61 103c3.906 3.71 3.906 3.71 5 5v2h3v2l1.805.262c2.808.944 3.621 2.154 5.32 4.55l1.508 2.083C79 121 79 121 79.993 123.199 81 125 81 125 84 126v3h-2c-1.113-1.207-1.113-1.207-2.312-2.812-2.247-2.842-4.533-4.385-7.688-6.188v-2h-3c-3.819-4.373-6.562-9.391-8-15"/><path fill="#ea0315" d="M132 200c2.963 1.319 5.59 2.818 8 5l1 3c-1.75.75-1.75.75-4 1l-1.562-2c-2.438-2-2.438-2-5.102-2.012q-2.993.321-5.973.75L122 206l-1-1-.875 1.5L119 208h-2v-2l-3 1v-2c5.829-3.858 10.91-6.588 18-5"/><path fill="#fdfbfb" d="M254 114h1c4.03 16.318.207 35.073-4 51l-2-1c.45-3.984.955-7.937 1.719-11.875 2.427-12.668 2.984-25.247 3.281-38.125"/><path fill="#ca010a" d="M177 96h1c.262 2.23.262 2.23 0 5-1.793 2.176-1.793 2.176-4.187 4.313-4.129 3.88-7.12 7.72-9.813 12.687-2.46-2.46-2.237-3.88-2.266-7.246.32-2.114.882-3.13 2.266-4.754 1.55-1.027 1.55-1.027 3.313-1.937 7.774-4.237 7.774-4.237 9.687-8.063"/><path fill="#e12f26" d="m177 71 4 16 .555 2.123c.706 2.978.504 5.824.445 8.877l-4 2c-1.837-7.414-2.236-14.377-2-22l-2-1v-5c2-1 2-1 3-1"/><path fill="#f19b8e" d="M8 141h1l.364 1.781c2.298 11.088 4.749 21.732 9.304 32.125 1.295 3.008 2.341 5.977 3.332 9.094-1.5-1.375-1.5-1.375-3-3v-2h-2c-11.566-26.309-11.566-26.309-9-38"/><path fill="#cc010a" d="M39 157c3.254.394 5.14 1.09 7.938 2.875C54.635 164.49 65.186 165.63 74 165l-1 3-2.52-.254-3.293-.309-3.269-.316C61 167 61 167 58 168c-2.559-.418-2.559-.418-5.437-1.187l-2.872-.731C46.664 164.865 45.18 163.388 43 161c-2.25-1.25-2.25-1.25-4-2z"/><path fill="#fceced" d="M72 98c4.253 1.377 7.001 3.527 10.063 6.688l1.323 1.34C86.66 109.437 88.97 112.757 91 117l2-2-1 9c-2.068-2.511-3.955-4.928-5.687-7.687-3.276-5.02-7.995-11.242-13.09-14.422L72 101z"/><path fill="#d50a0f" d="M91 9c-1 3-1 3-2.626 3.967l-2.085.822-2.273.914-2.391.922-2.367.945C76.19 17.79 73.133 18.956 70 20l-2-2c2.883-3.182 5.515-4.963 9.438-6.687l2.808-1.262C84.284 8.51 86.837 7.612 91 9"/><path fill="#fa1625" d="m76 178 1 3-4 1-1 4-17 2c3.51-3.51 5.227-4.818 9.563-6.687l2.878-1.262C70.484 178.8 72.686 178 76 178"/><path fill="#fc282e" d="M193 93c0 3 0 3-1 6a465 465 0 0 1-4.402 1.98c-1.973 1.26-2.72 2.58-3.91 4.582-1.535 2.393-2.318 3.294-5 4.336-2.231.481-4.42.86-6.688 1.102 6.003-7.48 12.46-13.552 21-18"/><path fill="#f3a69a" d="M18 179c4.175 3.827 6.897 7.822 9.75 12.688C31.875 198.53 36.364 204.337 42 210l-1 3c-9.286-8.088-17.958-19.717-23-31z"/><path fill="#d21b19" d="M227 142c1.29 2.581.816 4.117-.016 6.809-6.2 13.803-18.39 23.468-32.195 28.843-2.193.427-3.681.021-5.789-.652l2.238-.848c15.95-6.302 27.56-15.102 34.512-31.09z"/><path fill="#f60e1c" d="M170 70h2c.41 7.861-2.73 15.49-7.562 21.688C162.157 93.85 161.094 94.77 158 95c-.25-1.75-.25-1.75 0-4 1.877-2.19 3.418-3.709 6-5l.5-2 .5-2 2-1c.852-2.504.852-2.504 1.625-5.562.26-1.012.52-2.024.79-3.067z"/><path fill="#c10a0f" d="m77 96 1 2 2.188.625c4.155 2.032 6.44 5.463 8.812 9.375v2l4-1-1 9c-2.266-2.266-3.976-4.247-5.812-6.812-2.009-2.748-4.05-5.083-6.563-7.376-2.23-2.118-2.583-2.487-3-5.687z"/><path fill="#f3a89a" d="M162.883 10.18c5.837 1.81 11.336 4.18 16.867 6.757l2.184 1.018A82.5 82.5 0 0 1 194 25l-2 1c-2.401-.924-4.68-1.9-7-3l-1.783-.843q-1.78-.85-3.559-1.708C172.573 17.045 165.542 14.261 158 12c1.747-1.483 2.559-2.042 4.883-1.82"/><path fill="#bb0209" d="M159 165c-3.75 3-3.75 3-6 3l-.812 2.813c-1.588 4.26-2.97 5.579-7.036 7.609l-3.214 1.328-3.223 1.36C136 182 136 182 134 181l1.977-1.54c8.002-6.302 8.002-6.302 11.21-9.773 2.929-3.053 7.595-6.796 11.813-4.687"/><path fill="#e07c62" d="m55 197 2.445.438c14.421 2.293 29 1.747 43.555 1.562-3.475 2.606-6.782 3.126-11.055 3.133l-2.343.006-2.477-.014-2.553-.01c-19.534-.16-19.534-.16-27.572-3.115z"/><path fill="#f1a89e" d="M7 108h1c.985 7.077 1.151 14.05 1.125 21.188l.012 3.193C9.13 137.369 9.062 142.118 8 147H7c-.95-3.994-1.146-7.826-1.133-11.91l-.003-1.968q0-2.048.006-4.097c.005-2.084 0-4.169-.007-6.254q0-1.996.004-3.994l-.006-1.878C5.878 113.78 6.07 110.984 7 108"/><path fill="#f3101b" d="M214 88c-1.658 2.705-2.459 3.842-5.562 4.75C206 93 206 93 204 93v2h-2l-1 6h-2l-.437 1.875C198 105 198 105 197 107h-2c1.276-4.64 3.231-8.119 5.977-12.07 1.15-2.169 1.227-3.512 1.023-5.93a232 232 0 0 1 3.75-1.062l2.11-.598c2.36-.375 3.884-.067 6.14.66"/><path fill="#fbebec" d="M51 131a55 55 0 0 1 5.375 8.313c2.253 4.136 4.788 7.932 7.625 11.687h-2l-1 2c-4.246-5.255-7.596-10.682-10.703-16.68C49 134 49 134 47 132z"/><path fill="#f2a498" d="m54 30 2 1c-3.653 4.552-7.531 8.403-11.984 12.168-2.095 1.904-3.883 3.917-5.703 6.082C35.753 52.28 33.56 54.273 30 56c4.294-9.853 15.53-19.647 24-26"/><path fill="#d91b21" d="m121.055 250.902 3.36.01 3.46.025q1.766.008 3.531.014 4.298.018 8.594.049v2c-2.725.908-4.33 1.128-7.133 1.133l-2.445.004-2.547-.012-2.477.012c-5.528-.009-10.918-.413-16.398-1.137v-1a62 62 0 0 1 12.055-1.098"/><path fill="#eec1a1" d="M200 128c1 3 1 3-.012 5.68C193.31 146.947 183.374 156.938 171 165l-2-1 2.71-1.984C184.5 152.452 193.016 142.34 200 128"/><path fill="#fae8e9" d="m203 130 3 2c-1.39 4.74-3.35 8.677-5.937 12.875l-1.053 1.797c-1.037 1.695-1.037 1.695-3.01 4.328h-3c-2.187 1-2.187 1-4 2l1.137-1.469c5.21-6.825 9.694-13.526 12.863-21.531"/><path fill="#fbe8e8" d="M171 247c-2.627 3.368-5.965 4.129-9.937 5.125l-2.01.516c-16.11 3.95-16.11 3.95-22.053.359l3.445-.516c8.28-1.285 16.326-2.724 24.313-5.301 4.05-1.28 4.05-1.28 6.242-.183"/><path fill="#d50306" d="M155 105c2 1 2 1 3.11 3.762 1.453 5.58 1.18 11.325 1.14 17.05l.023 3.467-.007 3.303-.007 3.007C159 138 159 138 157 140l-.076-1.813c-.47-11.078-.944-22.14-1.924-33.187"/><path fill="#e2010f" d="m174 191 29 2 1-2c3.906 3.71 3.906 3.71 5 5v2h-7l3-2-1.984-.152c-3.006-.234-6.011-.478-9.016-.723l-3.121-.238c-5.836-.483-11.247-1.276-16.879-2.887z"/><path fill="#f4081b" d="M85 183c-1 2-1 2-2.807 2.686-2.562.658-5.124 1.31-7.693 1.939l-2.648.695C66.133 189.746 60.887 190.307 55 190l-1-2 1.94-.335q4.375-.764 8.748-1.54l3.052-.527 2.96-.528 2.713-.476C76 184 76 184 78.687 182.91c2.62-1.03 3.718-.87 6.313.09"/><path fill="#fceaeb" d="M151 84c2.81 3.383 4.478 6.932 6.188 10.938l.826 1.841c1.527 3.549 2.322 6.281 1.986 10.221h-3q-1.476-4.091-2.937-8.187l-.842-2.33C150.455 88.717 150.455 88.717 150 85z"/><path fill="#d5060a" d="M4 117h1l.076 1.649q.177 3.738.362 7.476l.119 2.594c.225 4.508.667 8.83 1.443 13.281.062 1.624.087 3.25.063 4.875l-.028 2.367L7 151H4c-4.242-8.483-.519-24.698 0-34"/><path fill="#bd0b11" d="M95 166h3v2l4 1 1 4 5 1c-1.484 1.21-1.484 1.21-4 2-2.906-.78-5.544-2.075-8.25-3.375l-2.258-1.04A405 405 0 0 1 88 169v-2c5.75.875 5.75.875 8 2z"/><path fill="#fc2b2c" d="M90 72c3.346.305 4.774.79 7.273 3.11l2.102 2.64 2.148 2.61C103 83 103 83 102.727 85.827L102 88c-3.642-1.214-3.917-2.09-5.687-5.375l-1.325-2.398C94 78 94 78 94 75h-4z"/><path fill="#dd0212" d="M175 142c-4.75 4-4.75 4-7 4v2h-2l-1 3-1.875.875c-2.793 1.479-3.569 3.437-5.125 6.125h-2c1.397-6.548 3.374-10.125 9.004-13.844 6.014-3.483 6.014-3.483 9.996-2.156"/><path fill="#ef9283" d="M96.563 7.563c2.801.356 4.39.393 7.062-.063 3.21-.475 5.28-.344 8.375.5-6.49 3.464-13.798 5.13-21 3-2-1.562-2-1.562-3-3l-1 2h-7c4.367-4.367 10.872-3.427 16.563-2.437"/><path fill="#fc212d" d="M224 128v4c-3.142 1.397-5.546 2.256-9 2v2h-4v-3l-3-1a539 539 0 0 1 5.188-2l2.917-1.125c2.817-.851 4.977-1.046 7.895-.875"/><path fill="#ee8e7f" d="M113 247h29c-3.311 3.311-3.603 3.382-7.965 3.398l-2.924.012-3.048-.035-3.038.035-2.927-.012-2.672-.01C117 250 117 250 113 247"/><path fill="#d61216" d="m93 244-2 4c-3.662-.627-6.882-1.645-10.312-3.062l-2.676-1.098L76 243v-2c5.768-1.923 11.464 1.082 17 3"/><path fill="#d7010d" d="M175 88c2.25 2.25 2.36 2.765 2.5 5.813-.047 2.56-.188 3.787-1.773 5.824C171.775 103 171.775 103 169 103l2-9h2l.438-2.437C174 89 174 89 175 88"/><path fill="#c22b2d" d="M63 200c9.381.675 18.676 1.781 28 3v2c-9.314.377-18.097.096-27-3z"/><path fill="#de050d" d="M16 128c2.375-.187 2.375-.187 5 0 1.8 1.714 1.983 2.71 2.125 5.188L23 135l1.75.063c3.563 1.484 4.696 4.532 6.25 7.937.75 2.438.75 2.438 1 4-1.96-1.872-3.572-3.693-5-6l-1 2z"/><path fill="#f6cfd1" d="m161 106 3 14-3 1-1 12h-1l-.076-1.74q-.177-3.943-.362-7.885l-.119-2.738c-.219-4.625-.545-9.093-1.443-13.637 3-1 3-1 4-1"/><path fill="#d92b25" d="m75 84 2 2 2-1q-.174 2.625-.375 5.25c-.07.975-.14 1.95-.21 2.953-.4 2.693-1.05 4.467-2.415 6.797-1.5-.562-1.5-.562-3-2-.503-5.132.41-9.13 2-14"/><path fill="#f2b2ae" d="m126.438 4.875 2.158-.012c4.88.01 9.571.45 14.404 1.137v1h-27v2l-9-1c6.341-3.17 12.486-3.163 19.438-3.125"/><path fill="#fc1926" d="M132 208c1.875 2 1.875 2 3 4-2.248 1.703-3.996 3.012-6.89 2.977-1.715-.258-3.415-.611-5.11-.977 0-3 0-3 1.125-4.687 2.752-1.927 4.6-1.79 7.875-1.313"/><path fill="#d8151a" d="M241 78h3a742 742 0 0 1 2 4.813l1.125 2.707C248 88 248 88 248 91l-4 2q-1.048-2.618-2.062-5.25l-1.16-2.953c-.79-2.837-.802-4.091.222-6.797"/><path fill="#fc1c28" d="M190.367 181.027A133 133 0 0 1 196 184c-3.008 1.003-3.84 1.032-6.793.441l-2.158-.42-2.237-.459-2.271-.447q-2.772-.55-5.541-1.115l-1-3c4.952-1.65 9.664-.014 14.367 2.027"/><path fill="#b70d10" d="M187 149c-3.57 4.506-6.858 8.317-12 11-2.18-.406-2.18-.406-4-1q2.183-2.222 4.375-4.437l1.25-1.276c3.591-3.62 5.295-4.42 10.375-4.287"/><path fill="#ed0110" d="M225 127c1.75-.054 3.5-.093 5.25-.125l2.953-.07c2.817.196 4.406.75 6.797 2.195-3.268 2.705-4.798 3-9 3l-2 5h-2l-1 3-2-1 7-9-6-1z"/><path fill="#fce2e3" d="m104 83 2 1c-.832 6.446-4.1 12.265-7 18l-1-2-2 1c1.895-6.518 4.518-12.178 8-18"/><path fill="#dc0a17" d="m86 146 2.75.938C92 148 92 148 94.031 148.188 96 149 96 149 97.484 151.723q.657 1.66 1.266 3.34l.668 1.72c.541 1.4 1.063 2.808 1.582 4.217l-2 1-3-1c-1.125-4.75-1.125-4.75 0-7h-2v-2h-2v-2h-4z"/><path fill="#d80f14" d="m19 63 1 2h2c-.607 4.86-2.728 8.74-5 13l-4-2c1.396-4.77 3.417-8.761 6-13"/><path fill="#d71217" d="M39 40h3c-1.444 3.239-3.258 5.62-5.625 8.25l-1.914 2.14L33 52l-5-1a729 729 0 0 1 2.875-3.937l1.617-2.215C34 43 34 43 36 42l2 1z"/><path fill="#f9e9e9" d="M121 192v3c-1.898 1.824-1.898 1.824-4.375 3.688l-2.46 1.886C112 202 112 202 110 202l-1 2v-2l-6 1v-2l3.176-1.46 4.136-1.915 2.092-.96c.667-.31 1.334-.62 2.022-.938l1.856-.857c1.672-.847 3.184-1.798 4.718-2.87"/><path fill="#fefefe" d="M229 204c0 3.699-.798 4.228-3.25 6.875-1.999 2.19-3.898 4.32-5.687 6.688-4.06 4.798-9.015 8.719-14.063 12.437l-2-1 2.309-2.09C223.782 211.033 223.782 211.033 229 204"/><path fill="#dc2521" d="M47 102h2c1.881 6.93 2.16 12.119 0 19h-1c-2.4-11.854-2.4-11.854-2-18z"/><path fill="#ce000b" d="m78 93 1 2 1.875.813C83.641 97.358 84.465 99.28 86 102l2 1v2l5 1-1 4h-3c-1.43-1.863-1.43-1.863-2.875-4.312-2.366-3.793-4.273-5.422-8.125-7.688-.312-2.687-.312-2.687 0-5"/><path fill="#f50719" d="M41 87c3.584.15 6.702.545 10 2 2.161 3.111 3.315 6.28 4 10l-1 2-5-6-1 2-.77-1.496-1.042-1.942-1.02-1.933C44 90 44 90 41 89z"/><path fill="#de010e" d="m129.688 196.313 2.949.238L135 197l1 2h-3l1 2-2.16-.14c-6.623-.25-10.417.284-15.84 4.14l2-5h2v-3c3.366-1.064 6.185-1 9.688-.687"/><path fill="#cd0e0f" d="M49 118h2l.805 2.703 1.07 3.547.527 1.777c.761 2.508 1.55 4.876 2.723 7.223 1.156 2.311 1.016 4.205.875 6.75-5.852-5.334-7.41-12.486-7.922-20.129z"/><path fill="#c10c11" d="m195 131 3 1c-1.642 4.776-4.265 8.794-7 13l-5-2 1-2h2l1-3 3-3c1.188-2.187 1.188-2.187 2-4"/><path fill="#fcefef" d="M248 91h3c5.444 19.62 5.444 19.62 3.012 25.313L253 118l-.332-2.605c-1.096-8.273-2.65-16.297-4.668-24.395"/><path fill="#e90712" d="m79 63 2 1q.08 3.313.125 6.625l.05 1.871c.046 4.27-.62 7.523-2.175 11.504l-3-1 .402-1.836C77.676 75.123 78.502 69.153 79 63"/><path fill="#cd1d21" d="M176 167v3l-3 1 1 4h-14c2.39-2.39 4.921-3.34 8-4.562 5.889-2.382 5.889-2.382 8-3.438"/><path fill="#f30719" d="M84 77c2.302 3.188 5 7.004 5 11h3v2h2v2h2l1 3c-4.123-.458-6.358-.755-9-4-1.168-2.34-1.168-2.34-2.187-4.937l-1.043-2.59c-.727-2.334-.933-4.053-.77-6.473"/><path fill="#f81c2c" d="M81 176h20v1l-1.68.078c-2.177.17-4.202.382-6.32.922-1.5 2.063-1.5 2.063-2 4h-6l4-2v-2h-8z"/><path fill="#bc1414" d="m178 159 3 1c-6.066 4.508-11.942 8.255-19 11l-2-2c4.597-2.624 9.083-5.033 14-7l2.125-1.687z"/><path fill="#e50c1b" d="m163 135 2 4 3-1c.375 2.188.375 2.188 0 5-1.802 1.95-3.83 3.482-6 5l-2-1q.462-2.72.938-5.437l.527-3.06C162 136 162 136 163 135"/><path fill="#fadfe0" d="m96 132 2 13-4 1c-1.452-4.537-2.235-8.18-2-13 2-1 2-1 4-1"/><path fill="#f1a399" d="M218 207c0 3 0 3-2.012 5.34q-1.326 1.311-2.675 2.597l-1.319 1.303c-2.857 2.79-5.841 5.312-8.994 7.76l-2-1c4.847-6.36 10.755-11.1 17-16"/><path fill="#fefefe" d="M94 114h1v18l-3 1a555 555 0 0 1-.125-6.125l-.07-3.445c.206-3.617.904-6.084 2.195-9.43"/><path fill="#e70d12" d="M130 59c2.235.136 3.592.54 5.096 2.237 1.143 1.656 2.189 3.345 3.216 5.075l1.127 1.764 1.05 1.725.954 1.567c.74 2.165.262 3.499-.443 5.632a2333 2333 0 0 1-4.937-7.312l-1.42-2.092-1.358-2.022-1.254-1.856C131 62 131 62 130 59"/><path fill="#c60a0e" d="m216 156 1 3-10 9-4-2 3-1v-3l5-1v-2h4z"/><path fill="#d80711" d="M159 101h10l-1 4a89 89 0 0 1-4 2l-3 4z"/><path fill="#b8070c" d="M139 184c2.1 1.23 4.02 2.573 6 4-2.604 1.302-4.397.717-7.187.246C136 188 136 188 133.188 188.125L131 188c-1.312-1.5-1.312-1.5-2-3 3.791-1.842 5.976-2.374 10-1"/><path fill="#cc0001" d="M98 108h1l-1 24-2-1a926 926 0 0 1-.125-8.687l-.05-2.475c-.036-4.409.1-7.825 2.175-11.838"/><path fill="#c7412d" d="M118 193c-3.87 4.147-6.963 6.106-12.625 6.75l-2.352.297C101 200 101 200 99 198l2.484-.805 3.266-1.07 3.234-1.055C111 194 111 194 113.204 192.805 115 192 115 192 118 193"/><path fill="#e90c1b" d="M86 135c3 1 3 1 4 3l2-2a357 357 0 0 1 1.563 4.75l.878 2.672c.576 2.656.451 4.048-.441 6.578l-4-3 2-1-1.312-1.645L89 142.188l-1.687-2.145C86 138 86 138 86 135"/><path fill="#ed0c18" d="m207 90 2 4-2.375 2.188c-1.873 1.852-2.642 2.856-3.625 5.374-1.304 3.18-3.24 4.478-6 6.438a85 85 0 0 1 2-7h2l1-6h2v-2c1.5-1.625 1.5-1.625 3-3"/><path fill="#e87b7d" d="m80 11-10 5v5l-3 1v-2h-3l-1 2-2-2c4.782-4.404 12.303-11.232 19-9"/><path fill="#f8d4d3" d="m95 174 1 2-2.824.113C84.465 176.537 76.43 177.74 68 180v-3c8.765-2.64 17.923-2.639 27-3"/><path fill="#c91c19" d="M102 150c1.552 2.202 2.694 4.428 3.813 6.875 1.875 3.837 4.008 6.299 7.187 9.125l-1 2c-4.113-1.478-5.747-4.234-7.812-7.875l-.983-1.605c-1.437-2.481-2.27-4.01-1.904-6.903z"/><path fill="#e20811" d="M210 91c1.072 3.217.936 4.053.063 7.188l-.59 2.167L209 102h-2l-1 1.5-1 1.5h-2l1-7 3-1c1.125-1.937 1.125-1.937 2-4z"/><path fill="#d80b15" d="M82 96c3 1 3 1 4.813 3 2.691 2.461 4.614 2.675 8.187 3l-1 9h-1l-1-5-4-1v-2l-3-1c-1.687-3.062-1.687-3.062-3-6"/><path fill="#bb090b" d="M185 201v2c-2.349 1.174-3.738 1.115-6.352 1.098l-2.578-.01-2.695-.025-2.719-.014q-3.328-.018-6.656-.049v-2q4.125-.253 8.25-.5l2.355-.145 2.286-.136 2.094-.127c2.008-.092 4.005-.108 6.015-.092"/><path fill="#d81216" d="M7 149h1l2 11-3 1-1 2q-.508-1.873-1-3.75l-.562-2.11c-.432-2.111-.515-3.992-.438-6.14h3z"/><path fill="#e6151d" d="M178 83c2 1 2 1 3.125 4.125.983 3.708 1.031 7.054.875 10.875l-3-1c-1.835-4.53-2.516-9.302-1-14"/><path fill="#e40b17" d="M60 153c3.367 1.393 4.986 2.979 7 6l-4 3-5-3z"/><path fill="#e8111d" d="m196 150 1 4c2.063 1.25 2.063 1.25 4 2-4.51 2.13-4.51 2.13-7.125 1.438L192 157c-1.75 1.438-1.75 1.438-3 3l-2-1z"/><path fill="#fdfbfb" d="M164 118h2l-.937 2.563c-1.161 3.45-1.63 6.828-2.063 10.437l-3 1v-13l4 1z"/><path fill="#d60207" d="M208 35c1.781-.242 1.781-.242 4 0 1.781 1.68 1.781 1.68 3.5 3.875 2.353 2.984 4.115 4.474 7.5 6.125 1.25 1.625 1.25 1.625 2 3-7.744-1.01-12.07-6.376-17-12z"/><path fill="#f4cecf" d="M101 176c5.178-.545 8.84.955 13.586 2.977 2.768 1.173 5.549 2.118 8.414 3.023v2c-7.51-1.917-14.758-4.24-22-7z"/><path fill="#e60e14" d="M123 57h2c-.571 4.289-2.09 7.14-4.437 10.75l-1.872 2.922C117 73 117 73 115 74c.584-4.312 2.238-7.626 4.438-11.312l.947-1.667c.81-1.378 1.706-2.705 2.615-4.021"/><path fill="#d60c14" d="M120 198v2h-2l-2 5h-2l-1 2c-1.5-1.375-1.5-1.375-3-3v-2c5.977-4.619 5.977-4.619 10-4"/><path fill="#fcf4f5" d="M239 189c0 3.68-1.396 5.699-3.312 8.688-.31.51-.618 1.022-.936 1.548-.928 1.463-.928 1.463-2.752 3.764h-3a97 97 0 0 1 4.438-8.125l1.246-2.07c1.304-1.788 2.406-2.725 4.316-3.805"/><path fill="#bd0c0f" d="M146 171h1l1 6a724 724 0 0 1-5.875 2.563l-1.684.748c-1.456.622-2.947 1.162-4.441 1.689l-2-1 2.117-1.68 2.758-2.195 1.395-1.105c2.01-1.603 3.91-3.2 5.73-5.02"/><path fill="#c11212" d="M190 147h3c-2.325 5.706-7.254 9.339-12 13l-2-2 2.152-1.898 2.786-2.477 1.42-1.25c3.529-3.148 3.529-3.148 4.642-5.375"/><path fill="#fc2328" d="M91 75h3q1.256 2.434 2.5 4.875l1.406 2.742C99 85 99 85 99 87h2l-1 3-2-1v-2l-3-1c-1.168-1.996-1.168-1.996-2.187-4.437l-1.043-2.434C91 77 91 77 91 75"/><path fill="#c63637" d="M153 201a585 585 0 0 1 4.375-.062l2.46-.036C162 201 162 201 164 202v2h13v1c-16.945.434-16.945.434-23-2z"/><path fill="#f4dbdc" d="M131 183v2l-4-1 1 3c-1.834 3.433-4.351 5.683-7.812 7.375L118 195c1.585-3.89 3.998-6.156 7-9l-1-3c4.75-1.125 4.75-1.125 7 0"/><path fill="#c91016" d="m77 96 1 2 2.375.813c3.247 1.468 4.06 3.057 5.625 6.187l-3 2c-5.882-5.094-5.882-5.094-6.375-8.875z"/><path fill="#cb1d1e" d="M44 167c4.178 1.589 8.137 3.494 12.125 5.5l1.879.934 1.816.91 1.634.818c1.585.86 3.062 1.815 4.546 2.838-7.02-.32-13.103-3.318-19-7-1.86-2.2-1.86-2.2-3-4"/><path fill="#c30209" d="M64 170c8.2-.358 8.2-.358 12 2 1.661.68 3.327 1.35 5 2-2.354 1.43-3.48 2.087-6.25 1.625L73 175v-3l-7 2v-3z"/><path fill="#d21012" d="M156 132h1c.983 7.21 1.664 12.55-2 19h-2c.724-6.392 1.803-12.68 3-19"/><path fill="#ec7964" d="m246 107 1 4h2l-1 30h-1z"/><path fill="#d01b15" d="M200 197c-1.457 2.913-3.354 3.055-6.375 4.125l-2.96 1.07C188 203 188 203 185 203c1-3 1-3 3-5 4.024-1.15 7.853-1.081 12-1"/><path fill="#e80d1b" d="M157 177v4l4 1v2h-3v-2l-3.312-1.125-1.864-.633C151 180 151 180 149.27 180.945L148 182l-3-3c4.212-1.605 7.421-2.218 12-2"/><path fill="#eb2428" d="M214 88c-1.594 2.6-2.58 3.828-5.437 5-2.563 0-2.563 0-4.875-1.937L202 89a232 232 0 0 1 3.75-1.062l2.11-.598c2.36-.375 3.884-.067 6.14.66"/><path fill="#b50f0e" d="M71 151c3.08 1.383 5.285 3.016 7.75 5.313 3.813 3.425 7.818 6.13 12.25 8.687l-1 2a2239 2239 0 0 1-6.125-4.187l-1.727-1.174c-3.905-2.685-7.63-5.457-11.148-8.639z"/><path fill="#dc0f13" d="M155 105c2 1 2 1 3.125 4.125.983 3.708 1.031 7.054.875 10.875l-2 1c-1.193-5.39-2.291-10.467-2-16"/><path fill="#de2729" d="M101 95c1.796 2.661 2.033 3.781 1.54 7.016-.152.533-.152.533-.915 3.234l-.898 3.266L100 111h-3c.601-5.65 2.075-10.662 4-16"/><path fill="#ef9787" d="M233 70c3.4 1.133 3.596 1.465 5.125 4.5 2.097 4.419 2.65 8.652 2.875 13.5-1.86-1.86-2.51-2.853-3.508-5.187l-.8-1.868-.817-1.945-.84-1.945C233 72.263 233 72.263 233 70"/><path fill="#d4090d" d="M249 141h3v10l-4 1c-.143-7.429-.143-7.429 1-11"/><path fill="#d50d12" d="M67 20c-1.038 3.114-1.315 3.544-3.875 5.25l-1.555 1.078C60 27 60 27 57 26c.125-1.875.125-1.875 1-4 3.177-1.382 5.531-2 9-2"/><path fill="#f9dcdd" d="M171 247c-2.618 3.388-5.894 4.394-10 5-3.437-.375-3.437-.375-6-1 2.97-1.582 5.909-2.703 9.125-3.687l2.633-.825C169 246 169 246 171 247"/><path fill="#f5b6a7" d="M154 246c-5.303 4.419-13.578 3.103-20 3v-1l7-1v-1c4.703-.847 8.26-1.04 13 0"/><path fill="#f9ddde" d="M51 131c2.645 3.125 3.844 6.088 5 10l-3 1-.805-1.68-1.07-2.195-1.055-2.18C49 134 49 134 47 132z"/><path fill="#fdf6f7" d="M243 75h2q1.259 3.153 2.5 6.313l.723 1.802C249.317 85.913 250 87.965 250 91h-2q-1.259-3.153-2.5-6.312l-.723-1.803C243.683 80.087 243 78.035 243 75"/><path fill="#ef8e82" d="M33 53c0 3.771-1.133 4.968-3.312 8l-1.864 2.625C26.314 65.592 24.807 67.31 23 69c1.632-6.798 3.86-12.053 10-16"/><path fill="#da1b20" d="m148 3 9 1-3 1-1 3-10-1c3-2 3-2 5-2z"/><path fill="#d71419" d="M15 177h2l4 9-4-1-1 2c-1.804-2.76-2.013-3.89-1.625-7.25z"/><path fill="#fbf2f2" d="M98 154h4c1.563 2.813 1.563 2.813 3 6l-1 3c-3-1-3-1-4.687-3.937C98 156 98 156 98 154"/><path fill="#d81217" d="M194 234c-2.344 2.714-4.494 4.145-8 5-2.312-1.375-2.312-1.375-4-3 4.498-2.678 6.728-3.38 12-2"/><path fill="#f31d2c" d="M91 124h1c.054 1.916.093 3.833.125 5.75l.07 3.234c-.19 2.94-.668 4.54-2.195 7.016l-1-4-4-1v-3l5 2z"/><path fill="#c91318" d="M177 96h1c.438 2.063.438 2.063 0 5-2.12 2.573-4.506 4.793-7 7l-2-3h3l-1-3 2.438-1.875C176 98 176 98 177 96"/><path fill="#f3a49a" d="M23 65c1 2 1 2 .328 4.242l-1.078 2.633-1.047 2.617C20.031 76.935 18.7 78.9 17 81c-1-3-1-3 .434-6.137q.986-1.783 2.003-3.55l1.026-1.838A523 523 0 0 1 23 65"/><path fill="#fc232e" d="m76 178 1 3c-3.53 2.5-6.346 1.924-10.39 1.29L65 182c3.112-3.112 6.651-4 11-4"/><path fill="#fae3e4" d="m248 162 2 2c-.329 3.619-.852 6.557-2 10-2.062 1.188-2.062 1.188-4 2l.621-2.047.816-2.703.81-2.672A141 141 0 0 0 248 162"/><path fill="#d50d14" d="M185.25 162.188c1.26.584 2.508 1.191 3.75 1.812v2c-8.446 1.333-8.446 1.333-12 0 5.4-4.05 5.4-4.05 8.25-3.812"/><path fill="#fdfafb" d="m194 149 1 3-9 9-2-2c3.032-3.87 6.05-7.065 10-10"/><path fill="#c6191a" d="M57 137c2.913 3.537 5.5 7.16 8 11l-3 1a223 223 0 0 1-3.062-3.75l-1.723-2.11C56 141 56 141 56.316 138.735z"/><path fill="#c3181a" d="M63 200q2.938.212 5.875.438l3.305.246C75 201 75 201 77 202v2a424 424 0 0 1-4.75-.375c-.882-.07-1.763-.14-2.672-.21C67.01 203 65.242 202.287 63 201z"/><path fill="#e40f16" d="M152 105c1.913 3.266 2.357 5.994 2.625 9.75l.227 2.984L155 120l-2 1q-.542-3.435-1.062-6.875l-.315-1.973c-.736-4.925-.736-4.925.377-7.152"/><path fill="#da1c21" d="M207 34c2.472-.494 3.614-.679 6 0 2.954 2.414 5.484 5.139 8 8l-2 2a517 517 0 0 1-3.5-3.375l-1.969-1.898C212 37 212 37 212 35l-5 1z"/><path fill="#f3b0a5" d="M180 18c5.287 1.454 9.45 3.974 14 7-2 1-2 1-3.586.512l-1.789-.825-1.875-.863L185 23l-2.375-1C181 21 181 21 180 18"/><path fill="#fcf4f5" d="M183 243c-2.963 2.472-5.54 3.662-9.25 4.688-.892.25-1.784.502-2.703.761L169 249c3.851-5.46 7.383-6.308 14-6"/><path fill="#fb3435" d="m160 73 4 1h-2v2c-1.023 1.29-1.023 1.29-2.375 2.625l-1.336 1.352C157 81 157 81 155 81l1 3-4-1z"/><path fill="#f2aca3" d="M227 58c3.48 3.107 6.254 6.65 8 11l-1 2c-3.677-3.17-5.52-6.45-7-11z"/><path fill="#d6080d" d="M30.25 50.688 32 51c-1.857 5.429-1.857 5.429-5 7l-3-2c3.446-4.923 3.446-4.923 6.25-5.312"/><path fill="#e25559" d="M93 7c2 1.5 2 1.5 3 3-2.312.688-2.312.688-5 1-1.812-1.437-1.812-1.437-3-3l-1 2h-7c3.613-3.613 8.149-3.606 13-3"/><path fill="#d71218" d="M36 209c3.519 1.407 4.386 2.665 6 6l3 1-1 2-4-2v-2l-4-2z"/><path fill="#da1f26" d="m53.688 194.938 2.449.027L58 195c-1.708 2.106-2.521 2.938-5.262 3.293l-2.425-.106-2.45-.082L46 198v-2c2.882-.96 4.699-1.106 7.688-1.062"/><path fill="#fae3e4" d="M168 110h3c-.574 3.871-2.487 6.082-5 9l-2-1c2.314-6.116 2.314-6.116 4-8"/><path fill="#e93d33" d="M129 54h2l2 6h-2l3 6-2 1c-4.079-7.055-4.079-7.055-3.75-11z"/><path fill="#fb1423" d="m81 177 1 3c-2.36 2.097-3.546 2.97-6.75 3.188L73 183l1.5-1.375C76 180 76 180 76 178c2-1 2-1 5-1"/><path fill="#ba0e10" d="M53 170h6v2l3-1 3 1v3c-4.67-.556-7.937-1.775-12-4z"/><path fill="#c52e23" d="M88 167c4.67.556 7.937 1.775 12 4l-1 2q-2.188-.716-4.375-1.437l-2.46-.81C90 170 90 170 88 169z"/><path fill="#f8ddde" d="m198 144 1 3a91 91 0 0 1-4 4h-2a89 89 0 0 0-4 2 396 396 0 0 1 2.813-3.937l1.582-2.215C195 145 195 145 198 144"/><path fill="#d73739" d="M95 119h1l.148 2.414c.743 10.524.743 10.524 2.852 15.586h-2l-1 2c-1.239-6.659-1.091-13.251-1-20"/><path fill="#f32c37" d="M18 127c1.791-.054 3.583-.093 5.375-.125l3.023-.07C29 127 29 127 31 129h-6v2l-4-1v-2z"/><path fill="#d6080e" d="M183 16c2.313-.25 2.313-.25 5 0 1.976 2.044 3 3.118 3 6l-5-1-1-3h-2z"/><path fill="#f4afa0" d="M143 7c4.193-.082 7.897.005 12 1v2l2 1a316 316 0 0 1-5.312-.312l-2.989-.176C145.756 9.954 144.82 9.315 143 7"/><path fill="#d70f16" d="m139 249 12 2v1l-11 1z"/><path fill="#d6090e" d="M17 185c2.438.813 2.438.813 5 2l1 3-3 3c-3-4.625-3-4.625-3-8"/><path fill="#f7c0c0" d="m180.688 175.875 1.837.316c1.494.26 2.985.533 4.475.809-1.082 1.055-1.082 1.055-3 2a60 60 0 0 1-6.687-.875l-1.838-.316A384 384 0 0 1 171 177c2.92-2.846 6.044-1.812 9.688-1.125"/><path fill="#fcf3f4" d="M251 151c2 2 2 2 2.047 3.805-.536 3.736-1.007 6.931-3.047 10.195-1.598-4.953-.283-9.133 1-14"/><path fill="#d4131c" d="M96 154h2l3 7-2 1-3-1c-1.125-4.75-1.125-4.75 0-7"/><path fill="#e10e14" d="M16 128c2.375-.187 2.375-.187 5 0 1.313 1.125 1.313 1.125 2 3 .125 3.188.125 3.188 0 6-2.387-2.964-4.734-5.941-7-9"/><path fill="#fd2d37" d="m130 212 2 2c-4.668.969-4.668.969-7 1-1.937-1.437-1.937-1.437-3-3 3.323-1.108 4.692-.933 8 0"/><path fill="#d62b2e" d="m84 170 11 4v1H84z"/><path fill="#c40e13" d="m110 166 1.75 1.438c2.176 1.51 3.676 2.102 6.25 2.562v2l2 1-4 2a483 483 0 0 1-3-3.375l-1.687-1.898C110 168 110 168 110 166"/><path fill="#fc3234" d="M193 93c0 3 0 3-1 6-1.937.75-1.937.75-4 1l-2-1v-2z"/><path fill="#ce020a" d="M176 90h1c.473 7.37.473 7.37-1.5 10l-1.5 1-2-1z"/><path fill="#e90f1a" d="m41 87 8 2v8c-2-1-2-1-3.437-4C44 90 44 90 41 89z"/><path fill="#fd3335" d="M90 72c3.242.35 4.615.562 6.813 3.063L98 77l-3 2-1-4h-4z"/><path fill="#bf2319" d="M135 191c6.78.904 6.78.904 9 3v2l-3 1c-1.605-.96-1.605-.96-3.187-2.375l-1.606-1.398C135 192 135 192 135 191"/><path fill="#c62627" d="M107 176c5.864-.47 8.364.382 13 4-3.708 1.236-4.675.568-8.187-.937l-2.731-1.153L107 177z"/><path fill="#f09485" d="M242 162h1a764 764 0 0 1-.437 4.375l-.247 2.46C242 171 242 171 241 173h-2l-1 2c.716-4.584 2.306-8.707 4-13"/><path fill="#ec4248" d="M225 127c1.75-.054 3.5-.093 5.25-.125l2.953-.07c2.817.196 4.406.75 6.797 2.195l-4 3c-.235-.48-.47-.962-.71-1.457C234 129 234 129 231.835 128.488l-2.461-.175-2.477-.2L225 128z"/><path fill="#c90a0f" d="m55 127 5 1 1 3h-2l-1 3c-2.36-2.36-2.491-3.779-3-7"/><path fill="#c20d12" d="M168 110c-1.186 3.375-2.276 5.647-5 8l-1-6c2.316-1.765 2.913-2 6-2"/><path fill="#f5afa5" d="m54 30 2 1-6 7-4-1z"/><path fill="#bf0d11" d="M127 187c4.875 4.75 4.875 4.75 6 7l-8-1c.875-4.875.875-4.875 2-6"/><path fill="#c90a12" d="M97 161c2.313.188 2.313.188 5 1 1.813 2.563 1.813 2.563 3 5l-2 1a294 294 0 0 1-3-2.375l-1.687-1.336L97 163z"/><path fill="#e10d16" d="m234 130 2 1c-1.186 3.375-2.276 5.647-5 8-.264-4.756-.264-4.756 0-7 1.5-1.437 1.5-1.437 3-2"/><path fill="#f7c5bb" d="m116.75 5.875 2.984.055L122 6v1h-6v2l-9-1c3.988-1.994 5.471-2.227 9.75-2.125"/><path fill="#d3070b" d="m152 248 1 3-11-1c3.834-2.556 5.505-2.17 10-2"/><path fill="#f4b8b2" d="M18 179c4.632 3.901 6.013 7.063 7 13-3.173-2.697-5.31-6.225-7-10z"/><path fill="#ca151b" d="m155 158 1 3 2 1-4 1 1 3-5 1z"/><path fill="#f09283" d="M11 157c1.892 2.457 2.512 4.666 3.125 7.688l.508 2.449L15 169l-1-2h-2c-2.125-6.625-2.125-6.625-1-10"/><path fill="#cc1717" d="m216 156 1 3-6 5-2-3h2v-2h4z"/><path fill="#bd0304" d="M63 148c3.366 1.443 5.51 3.333 8 6l-1 3a517 517 0 0 1-3.5-3.375l-1.969-1.898C63 150 63 150 63 148"/><path fill="#eb1424" d="m163 135 2 4 3-1c-.812 1.938-.812 1.938-2 4l-3 1c-.879-5.371-.879-5.371-1-7z"/><path fill="#d50408" d="M246 91h2l1 7h-3a129 129 0 0 1-1-6z"/><path fill="#e31719" d="M105 87h2c-.61 3.558-1.578 6.683-3 10h-2c.507-3.719 1.116-6.735 3-10"/><path fill="#f19a8a" d="M170 15c3.875-.176 6.755-.283 10 2l1 3q-2.19-.676-4.375-1.375l-2.46-.773C172 17 172 17 170 15"/><path fill="#f0907f" d="M78 237c4.389.665 7.981 2.188 12 4-1.332 1.055-1.332 1.055-3 2-2.687-.875-2.687-.875-5-2v-2z"/><path fill="#f19580" d="M55 223c3.595 1.66 6.737 3.775 10 6-1.687.813-1.687.813-4 1-2.604-1.892-4.564-4.128-6-7"/><path fill="#fbe9ea" d="M34 214c2.38.176 3.702.697 5.379 2.402A119 119 0 0 1 43 221c-4.336-.482-6.202-2.891-9-6z"/><path fill="#d10c11" d="M130 194c4.992.428 6.79 2.424 10 6l-2 1v-2l-8-2z"/><path fill="#f11426" d="M91 176h10v1l-1.68.078c-2.177.17-4.202.382-6.32.922-1.5 2.063-1.5 2.063-2 4l-3-1h2z"/><path fill="#d20a0b" d="M204 123c1.467 3.815.433 6.29-1 10h-2c.114-1.293.242-2.584.375-3.875.07-.72.14-1.439.21-2.18C202 125 202 125 204 123"/><path fill="#e60a14" d="M103 103h2c.201 3.625-.142 5.865-2 9h-2q.212-1.97.438-3.937c.08-.731.162-1.462.246-2.215C102 104 102 104 103 103"/><path fill="#da1d22" d="M15 70h2c.625 2.875.625 2.875 1 6l-2 2-3-2z"/><path fill="#ee9285" d="M94 13c-4.839 2.063-8.717 3.396-14 3 4.115-3.786 8.643-4.786 14-3"/><path fill="#f5bbb4" d="M113 246v2h8v1c-1.937.054-3.875.093-5.812.125l-3.27.07c-2.782-.186-3.882-.38-5.918-2.195 4.75-1 4.75-1 7-1"/><path fill="#d71317" d="M59 228.313C61 229 61 229 63 231c-2.312 1.125-2.312 1.125-5 2-1.812-.75-1.812-.75-3-2v-2c2-1 2-1 4-.687"/><path fill="#f5d7d8" d="M92 115h1l-1 9c-4-4.75-4-4.75-4-7h3z"/><path fill="#ed8d7b" d="M243 94c1.438.625 1.438.625 3 2 .92 3.258 1.319 5.193.063 8.375L245 106q-.508-1.873-1-3.75l-.562-2.11c-.432-2.111-.515-3.992-.438-6.14"/><path fill="#e81518" d="M138 68c2.063 2.25 2.063 2.25 4 5l-1 4-5-8z"/><path fill="#f08c7a" d="m64 27-8 6-2-1c3.418-4.76 3.418-4.76 6.125-5.875C62 26 62 26 64 27"/><path fill="#f4b0a8" d="m68 21 2 1c-3.08 3.672-5.248 4.568-10 5 2.46-2.635 4.578-4.745 8-6"/><path fill="#d4050a" d="m102 247 11 2v1h-11z"/><path fill="#f4b6a9" d="m179 235 3 2c-1.264.7-2.537 1.384-3.812 2.063l-2.145 1.16C174 241 174 241 171 240l4-1v-2z"/><path fill="#f2cfcf" d="m144 180-10 4-2-2a211 211 0 0 1 3.75-1.562l2.11-.88C140 179 140 179 144 180"/><path fill="#f9e1e1" d="M9 173h2l3 9-3-1c-1.448-2.896-2-4.742-2-8"/><path fill="#d70b0e" d="m221 146 4 1-5 8-2-4h3z"/><path fill="#d81d24" d="m249 137 4 1v8c-3-2-3-2-3.512-3.727z"/><path fill="#fc2934" d="M167 117c1.188 1.688 1.188 1.688 2 4-1.375 2.75-1.375 2.75-3 5-1.187-1.687-1.187-1.687-2-4 1.375-2.75 1.375-2.75 3-5"/><path fill="#e92629" d="M147 82c2.154 2.622 3.4 4.644 4 8h-3c-1.43-2.354-2.087-3.48-1.625-6.25z"/><path fill="#e61619" d="M119 64h1c.313 2.188.313 2.188 0 5-1.5 1.948-3.134 3.367-5 5 .564-3.949 1.743-6.709 4-10"/><path fill="#d8191d" d="m165 7 5 1v5l-5-1z"/><path fill="#d51217" d="m141 200 4 2c-1.75 3.875-1.75 3.875-4 5-1.125-4.75-1.125-4.75 0-7"/><path fill="#f7e3e4" d="m111 200-2 4v-2l-6 1v-2c4.625-2.125 4.625-2.125 8-1"/><path fill="#bb0c10" d="m158 195 8 2-2 3c-2.625.188-2.625.188-5 0l2-2z"/><path fill="#df333a" d="M201 194h6l2 4h-7l3-2z"/><path fill="#d90b14" d="M142 180c2.25-.312 2.25-.312 5 0 2.313 2.5 2.313 2.5 4 5-3.775-1.09-6.47-1.908-9-5"/><path fill="#fdf7f8" d="M246 174c1 2 1 2 .441 3.727l-.879 1.898-.87 1.914L244 183l-2-4z"/><path fill="#da1b24" d="M159 149h2c.255 3.064.219 4.632-1.375 7.313L158 158h-2z"/><path fill="#f9dcdd" d="M187 239v3c-2.709 1.354-5.01 1.065-8 1 5.217-4 5.217-4 8-4"/><path fill="#ef8a78" d="M24 188c3.08 2.773 4.688 5.063 6 9-2.437-1.125-2.437-1.125-5-3-.812-3.187-.812-3.187-1-6"/><path fill="#fdeded" d="M184 178h8v4a234 234 0 0 1-3.437-.875l-1.934-.492C185 180 185 180 184 178"/><path fill="#c20f13" d="M127 179h6c-1.75 2.063-1.75 2.063-4 4-2.25-.25-2.25-.25-4-1l2-1z"/><path fill="#c40b11" d="m126 177-2 4-4-4c2.49-1.245 3.41-.777 6 0"/><path fill="#c8080d" d="M145 167c-.5 1.938-.5 1.938-2 4-2.648.675-5.276.873-8 1 2.695-2.695 6.084-5 10-5"/><path fill="#cd5237" d="M168 164v3c-2.5 2.188-2.5 2.188-5 4l-3-2z"/><path fill="#d9191e" d="M5 156h3l2 4-3 1-1 2z"/><path fill="#f9dbdc" d="m203 130 3 2-1 4-4 1z"/><path fill="#d41113" d="M98 108h1v8l-3 1c.486-3.123.999-5.996 2-9"/><path fill="#d20004" d="M252 108v6l-3 1v-6c2-1 2-1 3-1"/><path fill="#fae2e2" d="M248 91h3c.977 5.273.977 5.273 1 7l-2 2z"/><path fill="#ea212a" d="M77 76h2v8l-3-1z"/><path fill="#d6060b" d="m13 76 3 1c-.375 2.438-.375 2.438-1 5l-2 1a129 129 0 0 1-1-6z"/><path fill="#d60408" d="m159 6 6 1 1 3-3 1-2-1V8z"/><path fill="#d71a1f" d="m88 243 5 1-2 4h-3z"/><path fill="#d8080e" d="M44 217c2.876 1.246 4.485 2.222 6 5l-5-1z"/><path fill="#cb1a1c" d="M193 199v2c-2.906 1.257-4.796 2-8 2l1-3c4.75-1 4.75-1 7-1"/><path fill="#c72c2d" d="M141.313 176.688 143 177v2l-9 3c4.43-4.923 4.43-4.923 7.313-5.312"/><path fill="#fbf3f4" d="M96 173c5.75.75 5.75.75 8 3h-8z"/><path fill="#d31f1f" d="m210 166 2 2-7 5v-3c2.5-2.187 2.5-2.187 5-4"/><path fill="#d7171c" d="M70 162c3.375 1.186 5.647 2.276 8 5h-4v-2l-4-1z"/><path fill="#c9090c" d="M148 159h2c-.565 2.729-1.175 4.853-3 7h-2c1.875-4.75 1.875-4.75 3-7"/><path fill="#fc2a32" d="m62 94 8 4c-4 1-4 1-6 1z"/><path fill="#d8161b" d="M180 91h2v7l-3-1z"/><path fill="#d40309" d="m67 20-1 3-6 1 1-3c3-1 3-1 6-1"/><path fill="#d8181c" d="m190 18 6 3-4 3-3-2h2z"/><path fill="#d40004" d="M142 3h6v2l-7 1z"/></svg>