<svg xmlns="http://www.w3.org/2000/svg" width="512" height="512" viewBox="0 0 512 512"><path fill="#fefdfe" d="M0 0h512v512H0z"/><path fill="#fcfbfa" d="m268 80 1.297 1.746a194 194 0 0 0 3.281 4.227c7.915 9.894 16.229 20.41 15.785 33.687-.85 5.479-3.136 10.834-6.363 15.34l3 3-3 2 3 1-2 1c14.83-.368 27.495-7.206 38.242-17.055 5.249-5.586 9.318-12.073 13.461-18.492 1.436-2.21 2.927-4.302 4.594-6.344C341 98 341 98 341 97l-1.421.475a1024 1024 0 0 1-6.392 2.088l-2.236.748-2.158.693-1.984.65C325 102 325 102 322 101c8.527-3.78 16.528-7.181 26-7l-.918 1.73c-2.506 4.85-4.661 9.702-6.52 14.832-4.657 12.505-12.65 21.355-24.562 27.438l2.492.48c7.49 1.566 13.801 3.69 20.508 7.52-12.615 10.323-23.598 15.423-39.957 14.25-8.874-1.086-15.982-6.273-22.863-11.578C274 147 274 147 272 146l.639 1.357c2.545 5.961 2.902 11.396 2.861 17.83l-.015 3.085c-.19 8.216-1.517 14.442-5.485 21.728l-1.352 2.648c-3.142 5.706-7.167 10.291-11.59 15.012-2.582 2.935-4.315 5.855-6.058 9.34 6.16-3.096 11.546-6.749 16.837-11.14 3.66-2.912 3.66-2.912 6.518-2.618L276 204c.496 5.957-.53 10.076-4 15-4.713 4.934-10.47 9.823-17 12l-.297-1.645c-1.236-5.916-1.236-5.916-3.828-8.355L249 220l1.813 2.938c1.587 2.759 2.694 5.395 3.625 8.437 1.528 4.934 3.92 9.207 6.562 13.625l-4-2c1 2 1 2 3.25 2.824 3.286 1.405 5.344 3.436 7.75 5.988l1.25 1.292q1.255 1.295 2.494 2.605a64 64 0 0 0 2.557 2.486c3.444 3.194 5.308 6.501 7.262 10.743 2.824 5.922 5.86 11.67 9.08 17.388 4.874 8.678 9.324 16.868 11.357 26.674l.563 2.672C305.425 337.45 301.262 356.48 292 376q-3.053 6.45-6.035 12.93a515 515 0 0 1-2.697 5.692c-2.89 6.184-4.986 11.444-4.371 18.43.163 3.078-1.023 4.574-2.897 6.948l-1.43 2.004c-5.47 7.606-5.47 7.606-9.288 8.315l-1.856.095-2.022.117-2.091.094-2.127.117c-1.729.094-3.457.177-5.186.258l1 2h2v2l-3 1-1 7c-2.983.773-5.957 1.507-9 2l-1-1c.117-5.986.117-5.986 2.441-8.656a70 70 0 0 1 3.38-2.887C248 431 248 431 247.944 429.035c-1.245-2.682-2.787-3.712-5.195-5.41-6.715-5.012-10.296-10.022-13.75-17.625l-1.652 2.457C217.87 422.435 207.068 434.221 195 446l-2-1 1.285-1.25c3.686-3.629 7.202-7.342 10.57-11.266a466 466 0 0 1 5.196-5.906C228.145 406.204 228.145 406.204 230 396h1l.297-1.828C232.826 386 232.826 386 237 383h2c1.478-8.682 2.093-15.657-2.625-23.375l-1.2-2.041c-8.152-13.494-18.198-25.755-28.183-37.912a363 363 0 0 1-8.18-10.36l-2.105-2.761c-3.117-4.658-4.553-8.954-3.707-14.551 1.316-4.733 2.93-9.28 5.531-13.46 5.105-8.333 5.398-16.638 5.8-26.2l.15-3.293.09-2.943c1.095-7.924 4.195-12.573 9.968-17.956l1.94-1.882c2.711-2.63 5.45-5.23 8.19-7.832C233.553 209.956 240.93 201.717 247 191l5 1 1 14c12.48-13.478 17.716-26.19 17.207-44.395-.223-5.552-.59-11.08-1.207-16.605l-1.496-.332-1.942-.48-1.933-.458L262 143l-1-3a609 609 0 0 0-3.594-3.473c-6.742-7.322-7.956-14.842-7.734-24.457.543-9.72 7.173-16.805 13.023-24.09 2.013-2.533 3.71-5.16 5.305-7.98"/><path fill="#ab9384" d="m268 80 1.297 1.746a194 194 0 0 0 3.281 4.227c7.915 9.894 16.229 20.41 15.785 33.687-.85 5.479-3.136 10.834-6.363 15.34l3 3-3 2 3 1-2 1c14.83-.368 27.495-7.206 38.242-17.055 5.249-5.586 9.318-12.073 13.461-18.492 1.436-2.21 2.927-4.302 4.594-6.344C341 98 341 98 341 97l-1.421.475a1024 1024 0 0 1-6.392 2.088l-2.236.748-2.158.693-1.984.65C325 102 325 102 322 101c8.527-3.78 16.528-7.181 26-7l-.918 1.73c-2.506 4.85-4.661 9.702-6.52 14.832-4.657 12.505-12.65 21.355-24.562 27.438l2.492.48c7.49 1.566 13.801 3.69 20.508 7.52-12.615 10.323-23.598 15.423-39.957 14.25-8.874-1.086-15.982-6.273-22.863-11.578C274 147 274 147 272 146l.639 1.357c2.545 5.961 2.902 11.396 2.861 17.83l-.015 3.085c-.19 8.216-1.517 14.442-5.485 21.728l-1.352 2.648c-3.142 5.706-7.167 10.291-11.59 15.012-2.582 2.935-4.315 5.855-6.058 9.34 6.16-3.096 11.546-6.749 16.837-11.14 3.66-2.912 3.66-2.912 6.518-2.618L276 204c.496 5.957-.53 10.076-4 15-4.713 4.934-10.47 9.823-17 12l-.297-1.645c-1.236-5.916-1.236-5.916-3.828-8.355L249 220l1.813 2.938c1.587 2.759 2.694 5.395 3.625 8.437 1.528 4.934 3.92 9.207 6.562 13.625l-4-2c1 2 1 2 3.23 2.805 3.489 1.505 5.505 3.593 8.082 6.32l1.377 1.418A479 479 0 0 1 273 257c-3.97 4.096-6.602 6.238-12.3 7.516-3.83-.732-4.816-2.732-6.952-5.862l-1.435-2.216-1.471-2.135c-2.908-4.352-4.694-8.196-5.842-13.303a429 429 0 0 0-5.375 3.688l-1.54 1.029c-3.38 2.38-4.93 4.313-6.085 8.283l2.64.813c15.545 5.211 25.183 17.343 34.36 30.187l1.672 2.246C274 291.743 274 291.743 274 294c-2.74 1.37-4.97 1.126-8 1l-2-1v3c-7.083.935-10.814-1.279-16.68-5.176-1.974-1.552-3.152-2.643-4.32-4.824l1.375-1.187c1.901-2.121 2.687-4.143 3.625-6.813-4.216-3.834-8.643-5.736-13.937-7.75l-2.381-.957c-4.306-1.665-8.001-2.995-12.682-2.293-1.941 1.32-1.941 1.32-3.562 3.125l-1.758 1.918L212 275l-1.555 1.8A228 228 0 0 0 207 281c0-4.335 2.206-6.058 5-9.187l1.387-1.694c1.969-2.209 3.54-3.845 6.457-4.59 5.42-.24 10.206 1.574 15.156 3.596l2.39.95c5.467 2.25 10.295 4.807 14.61 8.925l2-5h-2v-2l3-1c-6.555-8.53-20.407-16.454-31.062-18.371l-1.938-.066-1.937-.122c-5.814 1.575-8.732 8.012-11.517 12.857L207 268.062l-1.6 2.845c-11.142 20.048-11.142 20.048-9.4 28.093 1.778 6.145 6.123 10.66 10.233 15.382 10.535 12.178 20.155 25.387 28.743 39.009.962 1.512 1.963 2.999 2.965 4.484 4.417 7.05 5.592 14.01 4.059 22.125-1.214 4.208-3.003 8.106-5 12l-2-3h2l1-4c-2.48 1.834-3.038 3.125-3.937 6.125-.717 7.095 4.024 13.695 8.238 19.023 5.164 5.628 11.69 10.332 19.406 11.133 4.097.132 7.467.006 11.356-1.344 2.756-2.756 3.15-5.144 3.937-8.937h2c-.423 5.397-1.232 7.918-5 12a704 704 0 0 0-2.625 3.25c-1.472 1.82-2.252 2.689-4.375 3.75-2.546.232-5.074.419-7.625.563l-2.14.13q-2.618.158-5.235.307l1 2h2v2l-3 1-1 7c-2.983.773-5.957 1.507-9 2l-1-1c.117-5.986.117-5.986 2.441-8.656a70 70 0 0 1 3.38-2.887C248 431 248 431 247.944 429.035c-1.245-2.682-2.787-3.712-5.195-5.41-6.715-5.012-10.296-10.022-13.75-17.625l-1.652 2.457C217.87 422.435 207.068 434.221 195 446l-2-1 1.285-1.25c3.686-3.629 7.202-7.342 10.57-11.266a466 466 0 0 1 5.196-5.906C228.145 406.204 228.145 406.204 230 396h1l.297-1.828C232.826 386 232.826 386 237 383h2c1.478-8.682 2.093-15.657-2.625-23.375l-1.2-2.041c-8.152-13.494-18.198-25.755-28.183-37.912a363 363 0 0 1-8.18-10.36l-2.105-2.761c-3.117-4.658-4.553-8.954-3.707-14.551 1.316-4.733 2.93-9.28 5.531-13.46 5.105-8.333 5.398-16.638 5.8-26.2l.15-3.293.09-2.943c1.095-7.924 4.195-12.573 9.968-17.956l1.94-1.882c2.711-2.63 5.45-5.23 8.19-7.832C233.553 209.956 240.93 201.717 247 191l5 1 1 14c12.48-13.478 17.716-26.19 17.207-44.395-.223-5.552-.59-11.08-1.207-16.605l-1.496-.332-1.942-.48-1.933-.458L262 143l-1-3a609 609 0 0 0-3.594-3.473c-6.742-7.322-7.956-14.842-7.734-24.457.543-9.72 7.173-16.805 13.023-24.09 2.013-2.533 3.71-5.16 5.305-7.98"/><path fill="#fbf7f7" d="M267 55h2l1.25 3.188c2.584 5.291 6.62 9.24 10.685 13.418l1.58 1.636 1.447 1.465C285 76 285 76 285 78c2.183-2.08 3.947-4.228 5.688-6.687 3.33-4.5 7.033-8.69 11.312-12.313h2l.48 1.8c1.632 5.798 3.728 11.132 6.336 16.56 2.357 5.258 3.522 9.813 3.434 15.578l-.012 1.855c-.084 4.417-.672 8.096-2.238 12.207l1.37-.975c5.547-3.73 11.02-5.665 17.442-7.4l2.85-.824C340.6 95.867 340.6 95.867 344 97l-2.062 1.875c-2.36 2.36-4.236 4.876-6.125 7.625-11.08 16.112-22.83 30.575-42.813 35.5-4.645.656-9.315.863-14 1l3-2-2-1 3-3-2-2 1.059-1.828 1.378-2.422 1.372-2.39c3.123-6.185 3.053-13.157 1.128-19.735-3.143-8.472-8.846-15.766-14.457-22.75A60 60 0 0 1 268 81l-.996 1.512c-2.405 3.63-4.824 7.247-7.336 10.804l-1.211 1.722q-1.185 1.683-2.384 3.355c-5.63 8.003-6.331 16.015-5.073 25.607 1.434 4.468 3.297 8.329 6.668 11.637C259 137 259 137 259 139l1.75.813c2.324 1.226 4.288 2.435 6.25 4.187v3c-10.177 9.495-20.113 13.62-34.027 13.473-9.648-.354-16.23-3.566-23.965-9.203-2.028-1.282-3.665-1.834-6.008-2.27v-2c6.87-3.304 13.63-6.034 21-8l-2.195-1.469c-13.227-9.065-18.598-20.821-23.262-35.86C198 100 198 100 197 98c10.658.303 20.767 4.298 29 11l-.965-3.07c-3.34-11.814-.713-21.338 4.336-32.153 1.515-3.285 2.231-6.188 2.629-9.777 6.147 4.933 11.666 10.383 16 17 16.623-18.87 16.623-18.87 19-26"/><path fill="#baa499" d="m247 191 5 1c1.937 15.804 1.937 15.804-1.5 20.5l-1.406 1.77c-1.714 2.71-1.305 4.869-.692 7.917.827 2.506 2.21 4.58 3.598 6.813.313 2.625.313 2.625 0 5l-1.012 1.2c-1.561 2.845-1.195 5.829-1.113 8.988l.027 1.982c.024 1.61.06 3.22.098 4.83-3.419-3.044-3.93-5.637-5-10a429 429 0 0 0-5.375 3.688l-1.54 1.029c-3.38 2.38-4.93 4.313-6.085 8.283l2.64.813c15.545 5.211 25.183 17.343 34.36 30.187l1.672 2.246C274 291.743 274 291.743 274 294c-2.74 1.37-4.97 1.126-8 1l-2-1v3c-7.083.935-10.814-1.279-16.68-5.176-1.974-1.552-3.152-2.643-4.32-4.824l1.375-1.187c1.901-2.121 2.687-4.143 3.625-6.813-4.216-3.834-8.643-5.736-13.937-7.75l-2.381-.957c-4.306-1.665-8.001-2.995-12.682-2.293-1.941 1.32-1.941 1.32-3.562 3.125l-1.758 1.918L212 275l-1.555 1.8A228 228 0 0 0 207 281c0-4.335 2.206-6.058 5-9.187l1.387-1.694c1.969-2.209 3.54-3.845 6.457-4.59 5.42-.24 10.206 1.574 15.156 3.596l2.39.95c5.467 2.25 10.295 4.807 14.61 8.925l2-5h-2v-2l3-1c-6.555-8.53-20.407-16.454-31.062-18.371l-1.938-.066-1.937-.122c-5.814 1.575-8.732 8.012-11.517 12.857L207 268.062l-1.6 2.845c-11.142 20.048-11.142 20.048-9.4 28.093 1.778 6.145 6.123 10.66 10.233 15.382 10.535 12.178 20.155 25.387 28.743 39.009.962 1.512 1.963 2.999 2.965 4.484 4.417 7.05 5.592 14.01 4.059 22.125-1.214 4.208-3.003 8.106-5 12l-2-3h2l1-4c-2.48 1.834-3.038 3.125-3.937 6.125-.717 7.095 4.024 13.695 8.238 19.023 5.164 5.628 11.69 10.332 19.406 11.133 4.097.132 7.467.006 11.356-1.344 2.756-2.756 3.15-5.144 3.937-8.937h2c-.423 5.397-1.232 7.918-5 12a704 704 0 0 0-2.625 3.25c-1.472 1.82-2.252 2.689-4.375 3.75-2.546.232-5.074.419-7.625.563l-2.14.13q-2.618.158-5.235.307l1 2h2v2l-3 1-1 7c-2.983.773-5.957 1.507-9 2l-1-1c.117-5.986.117-5.986 2.441-8.656a70 70 0 0 1 3.38-2.887C248 431 248 431 247.944 429.035c-1.245-2.682-2.787-3.712-5.195-5.41-6.715-5.012-10.296-10.022-13.75-17.625l-1.652 2.457C217.87 422.435 207.068 434.221 195 446l-2-1 1.285-1.25c3.686-3.629 7.202-7.342 10.57-11.266a466 466 0 0 1 5.196-5.906C228.145 406.204 228.145 406.204 230 396h1l.297-1.828C232.826 386 232.826 386 237 383h2c1.478-8.682 2.093-15.657-2.625-23.375l-1.2-2.041c-8.152-13.494-18.198-25.755-28.183-37.912a363 363 0 0 1-8.18-10.36l-2.105-2.761c-3.117-4.658-4.553-8.954-3.707-14.551 1.316-4.733 2.93-9.28 5.531-13.46 5.105-8.333 5.398-16.638 5.8-26.2l.15-3.293.09-2.943c1.095-7.924 4.195-12.573 9.968-17.956l1.94-1.882c2.711-2.63 5.45-5.23 8.19-7.832C233.553 209.956 240.93 201.717 247 191"/><path fill="#c12c30" d="M232 64c4.184 3.509 8.196 7.08 12 11l-1 2-8-8c-4.009 18.953-7.274 35.247 3.25 52.875 3.766 5.552 8.238 10.954 14.75 13.125l-2.312-2.25A50 50 0 0 1 245 126l1-2 2 3 3-3 .988 2.082 1.325 2.73 1.3 2.708c1.277 2.283 2.541 3.678 4.387 5.48v2l1.75.813c2.324 1.226 4.288 2.435 6.25 4.187v3c-10.177 9.495-20.113 13.62-34.027 13.473-9.648-.354-16.23-3.566-23.965-9.203-2.028-1.282-3.665-1.834-6.008-2.27v-2c6.87-3.304 13.63-6.034 21-8l-2.195-1.469c-13.227-9.065-18.598-20.821-23.262-35.86C198 100 198 100 197 98c10.658.303 20.767 4.298 29 11l-.965-3.07c-3.34-11.814-.713-21.338 4.336-32.153 1.515-3.285 2.231-6.188 2.629-9.777"/><path fill="#be2026" d="m268 80 1.297 1.746a194 194 0 0 0 3.281 4.227c7.885 9.856 16.32 20.452 15.766 33.707-1.122 7.575-4.534 13.165-9.758 18.629C277 140 277 140 275.922 141.71L275 143c-2.125.188-2.125.188-4 0-.842-2.525-1.171-4.202-1.316-6.793l-.116-1.946-.13-2.448L269 124l-1 21-6-2-1-3a609 609 0 0 0-3.594-3.473c-6.742-7.322-7.956-14.842-7.734-24.457.543-9.72 7.173-16.805 13.023-24.09 2.013-2.533 3.71-5.16 5.305-7.98"/><path fill="#fcf8f8" d="M267 59h2c1.375 1.8 1.375 1.8 3 4.313 2.752 4.073 5.682 7.627 9.063 11.187 4.462 4.766 7.962 9.653 10.937 15.5l1.25 2.426c4.07 8.859 3.911 18.001.809 27.176-1.96 4.44-4.573 10.155-9.059 12.398.888-5.581.888-5.581 1.52-7.941 2.208-9.462-.817-17.568-5.77-25.559-2.892-4.372-5.987-8.54-9.27-12.625A60 60 0 0 1 268 81l-.996 1.512c-2.405 3.63-4.824 7.247-7.336 10.804l-1.211 1.722q-1.185 1.683-2.384 3.355c-4.94 7.022-5.414 12.862-5.64 21.277l-.09 2.373-.056 2.157C250 126 250 126 248 128c-6.235-8.948-8.135-17.051-7-28 .93-3.575 2.31-6.721 4-10l1.215-2.387c3.277-5.898 7.39-10.852 11.806-15.908 3.125-3.598 5.783-7.215 8.077-11.412z"/><path fill="#fbf6f6" d="m344 97-2.062 1.875c-2.36 2.36-4.236 4.876-6.125 7.625-11.08 16.112-22.83 30.575-42.813 35.5-4.645.656-9.315.863-14 1l3-2-2-1 1.984-1.11c10.011-5.938 18.685-13.449 24.516-23.64 6.68-11.143 18.61-14.92 30.5-18.25l2.25-.691C341 96 341 96 344 97"/><path fill="#be2329" d="m348 94-.918 1.73c-2.506 4.85-4.661 9.702-6.52 14.832-4.657 12.505-12.65 21.355-24.562 27.438l2.492.48c7.49 1.566 13.801 3.69 20.508 7.52-12.615 10.323-23.598 15.423-39.957 14.25-9.726-1.19-17.597-7.343-25.043-13.25l2-1a93 93 0 0 1 6.313 2.375c17.627 7.267 35.213 3.602 52.687-2.375a1184 1184 0 0 0-5.187-1.937l-2.918-1.09c-8.804-2.959-17.854-2.736-26.782-.418-3.4.716-6.65.571-10.113.445 2.718-2.09 5.65-2.963 8.875-4.062 16.592-6.095 26.478-17.999 35.828-32.485 1.436-2.21 2.927-4.302 4.594-6.344C341 98 341 98 341 97l-1.421.475a1024 1024 0 0 1-6.392 2.088l-2.236.748-2.158.693-1.984.65C325 102 325 102 322 101c8.527-3.78 16.528-7.181 26-7"/><path fill="#faf2f2" d="M267 55h2l1.25 3.188c2.584 5.291 6.62 9.24 10.685 13.418l1.58 1.636 1.447 1.465C285 76 285 76 285 78l1.313-1.312L291 72l-1.062 2.688c-1.185 4.184-.75 6.684 1.183 10.558l1.317 2.192c5.312 8.863 6.311 19.295 4.175 29.39-2.134 7.291-6.247 12.914-11.613 18.172 0-3.545.613-4.05 2.813-6.687C294.28 120.03 296.068 110.34 295 100c-3.228-11.495-10.342-20.578-18.448-29.07C269 62.95 269 62.95 269 59h-2l-.742 2.18c-1.41 3.162-3.133 5.318-5.383 7.945-3.22 3.825-6.314 7.702-9.25 11.75l-1.898 2.617c-6.533 9.488-9.509 18.7-7.402 30.298 2.07 9.504 5.476 16.544 12.675 23.21-9.528-3.289-16.083-11.253-20.594-19.965-5.828-12.58-5.287-24.665-2.14-37.844.858-3.732 1.353-7.384 1.734-11.191l1.355 1.172c2.78 2.394 5.55 4.778 8.458 7.016 1.908 1.58 2.908 2.758 4.187 4.812 16.623-18.87 16.623-18.87 19-26"/><path fill="#faf9f9" d="m247 191 5 1c1.934 15.778 1.934 15.778-1.25 20.625l-1.328 1.602C248 216 248 216 246.732 218.877c-1.646 3.34-3.703 4.867-6.88 6.85l-1.499.954a410 410 0 0 1-4.728 2.944q-2.356 1.478-4.707 2.965a650 650 0 0 1-4.287 2.674c-4.8 3.166-7.954 5.532-10.236 10.904l-1.291 2.955-1.292 3.065a1150 1150 0 0 1-2.605 6.042l-1.141 2.7C207 263 207 263 205 264c.251-3.523.53-7.042.813-10.562l.212-3.002c.97-11.683 4.573-16.708 12.912-24.936l2.46-2.531 2.38-2.375 2.164-2.166C228 217 228 217 230.123 217.178c2.242.982 3.99 2.272 5.877 3.822l-7-6 4.297-4.98a138 138 0 0 0 9.953-13.333l1.102-1.666q1.327-2.009 2.648-4.021"/><path fill="#fbf6f6" d="M201 100c5.878.762 10.921 2.702 16.188 5.313l1.762.86c5.761 2.945 10.558 6.413 13.863 12.077C238.77 127.54 246.61 133.542 256 139c-3.01.934-3.867 1.044-7 0l8 3v1c-12.051 1.224-22.611-3.727-32-11l-1.43-1.085c-3.743-2.952-6.4-6.07-9.007-10.04l-1.15-1.703c-3.08-4.591-6.064-9.247-9.003-13.93A187 187 0 0 0 201 100"/><path fill="#f9f2f2" d="m230 396 1 3h2l1.25 2.598c4.736 9.511 9.99 16.6 20.18 20.754 6.247 1.576 13.38 1.492 19.57-.352-1.925 3.562-3.475 5.96-7 8-2.577.493-5.132.6-7.75.688l-2.113.103A434 434 0 0 1 252 431l1 2h2v2l-3 1-1 7c-2.983.773-5.957 1.507-9 2l-1-1c.117-5.986.117-5.986 2.441-8.656a70 70 0 0 1 3.38-2.887C248 431 248 431 247.944 429.035c-1.245-2.682-2.787-3.712-5.195-5.41-6.715-5.012-10.296-10.022-13.75-17.625l-1.652 2.457C217.87 422.435 207.068 434.221 195 446l-2-1 1.285-1.25c3.686-3.629 7.202-7.342 10.57-11.266a466 466 0 0 1 5.196-5.906C228.145 406.204 228.145 406.204 230 396"/><path fill="#f3dddd" d="M231 303c3.753 1.185 7.364 2.552 11 4.063 3.711 1.507 7.024 2.518 11 2.937v2l7 2v3c-6.055-1.254-11.426-3.342-17-6l2 2c.618 2.58 1.017 5.165 1.438 7.785L247 323l2 1 1-2h2v-3h7l-3 4 1.828.262c4.019.706 6.58 1.233 9.735 3.925 1.896 3.71 1.896 5.68 1.437 9.813-1 1.938-1 1.938-2 3l2 2c-.375 2.125-.375 2.125-1 4-3 0-3 0-5.375-.625-3.149-.45-4.802.254-7.625 1.625l-1-4h-2v-3h-4l-.375-3.25c-.407-2.96-1.247-5.093-2.625-7.75l1-2c-.375-1.656-.375-1.656-1-3.5s-.625-1.844-1-3.5l1-2h-4v-2h3l-1-2-3-1-1.312-2.312c-2.137-3.402-4.305-4.583-7.688-6.688z"/><path fill="#fbf4f5" d="M336 146v1c-.75.182-1.5.364-2.273.55l-3.102.762-3.367.82c-2.685.715-5.165 1.58-7.758 2.555-12.301 3.73-27.782 2.473-39.5-2.687-1.871-1.637-1.871-1.637-3-3h5l-4-2 1.693-.152c2.582-.235 5.163-.479 7.745-.723l2.662-.238a110 110 0 0 0 14.91-2.455c10.607-2.303 21.57.541 30.99 5.568"/><path fill="#f3dede" d="m261 317 6 1v4h3l1 2h3l-.625 2.375L273 329l2 2c2 2 2 2 2.063 4.813L277 339c.291 1.675.61 3.346 1 5h-2l.938 3.188A91 91 0 0 1 279 356h-3c.875 5.75.875 5.75 2 8-.437 2.125-.437 2.125-1 4h-2l-.113 1.898-.2 2.477-.175 2.46C274 377 274 377 271 379v-8h-2c-.1-3.492.222-6.594 1-10h-4l-2-9-4-1-1-5c3-1 3-1 6 0l1-2 2 1v-3l-2-2 .992-1.219c1.27-2.245 1.21-3.718 1.133-6.281l-.055-2.344L268 328v-3c-1.531-1.535-1.531-1.535-3.5-3.062-1.969-1.536-1.969-1.536-3.5-2.938z"/><path fill="#fcfbfb" d="M245 224c.714 12.605.714 12.605-2.095 16.53-2.242 2.208-4.71 3.924-7.339 5.638-2.564 1.83-3.49 2.927-4.566 5.832-.88-.095-1.76-.19-2.668-.29l-3.52-.335-3.48-.352c-3.365-.023-5.344.503-8.332 1.977 2.814-10.231 8.156-15.445 17.125-20.875l2.746-1.719a594 594 0 0 1 5.032-3.113 71 71 0 0 0 3.753-2.465C243 224 243 224 245 224"/><path fill="#bf292d" d="m304 59 .48 1.8c1.632 5.798 3.728 11.132 6.336 16.56 2.357 5.258 3.522 9.813 3.434 15.578l-.012 1.855c-.084 4.417-.672 8.096-2.238 12.207l1.68-1.129 2.195-1.433 2.18-1.442L320 102l2 1-2.379 1.363c-6.758 4.064-10.689 7.646-14.64 14.614-2.339 3.837-5.444 6.921-8.606 10.085l-1.67 1.698c-3.033 2.974-5.542 4.994-9.705 6.24l2-1.937a1215 1215 0 0 0 3-3.063l1.867-1.844c4.235-4.416 7.337-8.91 10.07-14.344l.893-1.763c5.349-11.163 4.11-24.215.672-35.74-1.52-5.11-2.174-9.973-2.502-15.309l-9 9c0-3 0-3 2.117-5.48q1.368-1.365 2.758-2.707l1.395-1.405C301.733 59 301.733 59 304 59"/><path fill="#fbf6f6" d="M235 142q2.592.511 5.188 1l2.75.523c5.651.88 11.355 1.16 17.062 1.477v1l-15 2c4.812 0 8.376-.099 12.938-1l2.902-.562L263 146c-2.448 2.875-4.838 3.894-8.375 5.125l-2.836 1.008C238.9 156.14 226.518 154.208 214 150a492 492 0 0 0-7-2c2.738-3.636 6.41-4.236 10.625-5.25.723-.175 1.446-.35 2.19-.532 5.375-1.216 9.786-1.473 15.185-.218"/><path fill="#bd2328" d="M248 222c4.215 3.532 5.653 6.338 7.176 11.574 1.391 4.095 3.612 7.727 5.824 11.426l-4-2c1 2 1 2 3.23 2.805 3.489 1.505 5.505 3.593 8.082 6.32l1.377 1.418A479 479 0 0 1 273 257c-3.955 4.08-6.595 6.432-12.39 7.398-2.61-.398-2.61-.398-4.813-2.847q-1.05-1.603-2.047-3.238l-1.062-1.608c-3.08-4.826-3.832-9.114-3.875-14.83l-.043-2.57c.247-2.473.856-3.32 2.23-5.305-.327-4.412-1.158-7.948-3-12"/><path fill="#be2a2f" d="M327.764 140.562c9.78 3.526 9.78 3.526 11.236 6.438-14.007 9.195-24.814 15.103-42 13-8.897-2.222-15.928-7.39-23-13l2-1a93 93 0 0 1 6.313 2.375c17.627 7.267 35.213 3.602 52.687-2.375-8.296-3.488-16.112-5.014-25-6 4.345-3.984 12.615-1.078 17.764.562"/><path fill="#be2429" d="M259 274c3.808 3.657 7.108 7.496 10.313 11.688l1.376 1.76C274 291.752 274 291.752 274 294c-2.74 1.37-4.97 1.126-8 1l-2-1v3c-6.58.718-9.883-.68-15.312-4.395L247 291c0-4.362 1.966-6.966 5-10l1.938-.812c2.705-1.558 3.63-3.466 5.062-6.188"/><path fill="#be242a" d="M274.316 203.285 276 204c.496 5.957-.53 10.076-4 15-4.713 4.934-10.47 9.823-17 12l-.332-1.61-.48-2.14-.458-2.11c-.842-2.468-2.082-4.136-3.73-6.14 4.813-3.5 4.813-3.5 6.301-4.574a280 280 0 0 0 7.738-5.774l1.473-1.125c1.366-1.044 2.722-2.1 4.078-3.156C272 203 272 203 274.316 203.285"/><path fill="#ac9588" d="m195 299 .793 1.207c4.77 7.087 9.962 13.77 15.394 20.356C221.916 333.635 231.714 347.246 240 362c.4.663.8 1.325 1.21 2.008 2.578 6.507 1.545 14.88-1.003 21.26A126 126 0 0 1 237 392l-2-3h2l1-4c-2.48 1.834-3.038 3.125-3.937 6.125-.717 7.095 4.024 13.695 8.238 19.023 5.164 5.628 11.69 10.332 19.406 11.133 4.097.132 7.467.006 11.356-1.344 2.756-2.756 3.15-5.144 3.937-8.937h2c-.24 6.12-.24 6.12-2.332 8.543-5.623 4.665-10.692 5.264-17.891 4.718-8.266-1.213-15-6.505-20.086-12.843-5.014-7.168-8.145-13.506-6.691-22.418 1.25-3.062 1.25-3.062 3-5 2.188-.812 2.188-.812 4-1 1.478-8.682 2.093-15.657-2.625-23.375l-1.2-2.041c-7.72-12.778-17.142-24.477-26.605-35.989-3.352-4.079-6.637-8.195-9.82-12.408l-1.124-1.472c-1.69-2.26-2.722-4.004-3.626-6.715z"/><path fill="#bd2127" d="m247 191 5 1c.984 11.467-1.569 18.513-8.75 27.688L241 222h-2c-.981-1.504-1.96-3.01-2.914-4.531-1.404-1.899-2.883-2.682-5.086-3.469 1.26-2.73 2.58-4.806 4.625-7 4.358-4.93 7.81-10.488 11.375-16"/><path fill="#bc2429" d="m264 146 2 1c-4.964 4.7-9.685 8.34-16 11l-2.164 1.082c-8.752 2.833-21.375 2.309-29.613-1.73-4.229-2.572-8.375-5.232-12.223-8.352v-1c5.33-.576 9.383 1.075 14.316 3.027 13.693 4.963 28.001 1.88 40.872-3.84z"/><path fill="#af998c" d="M281 271c3.876 4.656 6.743 9.591 9.636 14.917a445 445 0 0 0 2.587 4.653c10.995 19.948 13.023 43.3 7.082 65.282-1.83 6.09-4.361 11.775-7.08 17.512-1.532 3.296-2.998 6.619-4.463 9.945l-2.632 5.95q-.875 1.98-1.747 3.96a1365 1365 0 0 1-2.492 5.61l-.748 1.705c-1.406 3.131-2.97 5.807-5.143 8.466.645-4.088 2.006-7.634 3.695-11.383l1.661-3.76.876-1.97c13.16-29.662 25.195-59.371 12.768-91.637-3-6.716-6.691-13.105-10.342-19.485l-1.428-2.519-1.3-2.26C281 274 281 274 281 271"/><path fill="#c44246" d="M267 55h2l1.25 3.188c2.584 5.291 6.62 9.24 10.685 13.418l1.58 1.636 1.447 1.465C285 76 285 76 285 78l1.313-1.312L291 72l-1.062 2.688c-1.185 4.184-.75 6.684 1.183 10.558l1.317 2.192c5.312 8.863 6.311 19.295 4.175 29.39-2.134 7.291-6.247 12.914-11.613 18.172 0-3.545.613-4.05 2.813-6.687C294.28 120.03 296.068 110.34 295 100c-3.228-11.495-10.342-20.578-18.448-29.07C269 62.95 269 62.95 269 59h-2l-.742 2.18c-1.41 3.162-3.133 5.318-5.383 7.945-3.22 3.825-6.314 7.702-9.25 11.75l-1.898 2.617c-6.494 9.432-9.501 18.666-7.42 30.215.749 3.473 1.679 6.888 2.693 10.293-3.247-2.804-4.755-5.64-5.202-9.943-.746-16.31 2.783-27.763 13.772-39.987a462 462 0 0 1 3.909-4.189C261.66 65.411 265.057 60.83 267 55"/><path fill="#be292e" d="M232 64c4.184 3.509 8.196 7.08 12 11l-1 2-8-8q-1.047 5.52-2.081 11.041-.352 1.874-.707 3.744c-1.337 7.048-2.588 14.06-3.212 21.215l-2-1-2 2c-3.453-11.653-.587-21.596 4.371-32.223 1.515-3.285 2.231-6.188 2.629-9.777"/><path fill="#bc2126" d="M263 324c2.753 1.796 4.526 3.053 6 6 .232 2.55.407 4.521 0 7-2.181 2.6-3.594 2.94-6.937 3.438-3.769-.539-5.361-1.814-8.063-4.438-1.464-2.928-1.39-5.814-1-9 2.12-3.866 6.015-3.813 10-3"/><path fill="#a79080" d="M273 170h1c.996 11.2-3.553 21.03-10 30-2.266 2.589-4.6 5.1-6.953 7.61-2.344 2.737-3.828 5.418-5.274 8.695-.975 2.137-2.273 3.895-3.773 5.695l-1-1c0-8.158 5.273-13.703 10.254-19.746 5.928-7.322 9.214-14.616 12.167-23.539 2.106-6.242 2.106-6.242 3.579-7.715"/><path fill="#b29689" d="M228 215c3.907 1.438 6.197 2.886 9 6l-1 2-3.516-4.004C231 218 231 218 229.144 218.228c-4.239 1.526-7.093 5.253-10.207 8.397l-2.181 2.121c-7.642 7.65-9.15 13.544-9.943 24.191l-.249 2.94A809 809 0 0 0 206 263l2-2c.852 2.386 1.163 3.574.243 5.98l-1.227 2.067-1.336 2.312-1.43 2.391c-4.288 7.268-8.341 14.164-8.937 22.75l-.2 2.594L195 301c-2-2-2-2-2.375-4.937.203-6.155 2.683-12.344 5.906-17.524 5.105-8.332 5.398-16.637 5.8-26.2.6-13.206 4.538-18.947 13.857-27.839l2.85-2.781A904 904 0 0 1 228 215"/><path fill="#cc696a" d="m245 124 3 3 3-3 .988 2.082 1.325 2.73 1.3 2.708c1.277 2.283 2.541 3.678 4.387 5.48v2l1.75.813c2.283 1.204 4.224 2.595 6.25 4.187l-1 3-1.793.184c-6.788.72-6.788.72-9.644 1.379-4.163.71-8.35.51-12.563.437 2.62-2.142 4.86-2.366 8.188-2.625l2.73-.227L255 146l-9-1v-1l8-2-9-4c3.133-1.044 3.99-.934 7 0l-5-5 5 2-1.25-1.125c-5.75-6.16-5.75-6.16-5.75-9.875"/><path fill="#bf3135" d="m235 384 2 1-1.562 2c-1.945 4.058-1.588 6.727-.438 11 3.747 10.43 11.298 17.098 21 22 5.48 1.827 11.605 1.83 17.063-.062 2.756-2.757 3.15-5.145 3.937-8.938h2c-.24 6.12-.24 6.12-2.332 8.543-5.623 4.665-10.692 5.264-17.891 4.718-8.266-1.213-15-6.505-20.086-12.843-4.99-7.135-8.2-13.535-6.691-22.418 1.5-3.125 1.5-3.125 3-5"/><path fill="#fbf7f7" d="M242 310c4.371 1.398 8.686 2.804 12.875 4.688C258 316 258 316 261 316v3l3 1v2l1.875.75c2.476 1.456 3.076 2.628 4.125 5.25-3.675-.76-3.675-.76-5.312-1.969-2.23-1.362-4.313-1.69-6.875-2.156l-2.731-.508L253 323l4-3-5-1v3h-2l-2 4c-2.535-3.21-2.78-6.684-3.437-10.625-.536-2.26-1.14-3.573-2.563-5.375"/><path fill="#b09b8d" d="M246 219c3.525 3.525 5.835 8.023 6.25 13l-.25 2-5 2a458 458 0 0 1-.062-3.875l-.036-2.18C247 228 247 228 248 226h-3v-2a984 984 0 0 0-11.805 7.375 119 119 0 0 1-7.203 4.25c-8.026 4.63-12.56 13.555-14.992 22.375l1 2-3 3c-1.095-1.235-1.095-1.235-2-3 .807-3.29 2.462-6.272 3.938-9.312l1.15-2.553c4.84-10.165 12.94-14.625 22.287-20.385q2.985-1.844 5.96-3.703l2.643-1.63C245 221 245 221 246 219"/><path fill="#a79081" d="M229 398c2.285 2.285 2.294 2.981 2.75 6.063 1.801 8.685 7.332 14.718 14.25 19.937-4.263 0-5.838-1.937-8.926-4.71-3.56-3.93-5.803-8.533-8.074-13.29l-1.652 2.457C217.87 422.435 207.068 434.221 195 446l-2-1 1.285-1.25c3.686-3.629 7.202-7.342 10.57-11.266a466 466 0 0 1 5.196-5.906C227.826 406.561 227.826 406.561 229 398"/><path fill="#d06c6f" d="m246 425 6 2v2q3.094-.213 6.188-.437l3.48-.247A66 66 0 0 0 270 427c-1.308 1.87-2.39 2.874-4.654 3.341-2.013.179-4.014.28-6.034.346l-2.126.104c-1.728.082-3.457.147-5.186.209l1 2h2v2l-3 1-1 7c-2.983.773-5.957 1.507-9 2l-1-1c.117-5.986.117-5.986 2.441-8.656a70 70 0 0 1 3.38-2.887L248 431c-.291-2.315-.958-3.916-2-6"/><path fill="#bf2d31" d="M226 134c3.29.687 6.045 1.908 9.063 3.375 5.509 2.562 11.038 4.221 16.937 5.625v1c-11.538.346-11.538.346-16-1.062-9.225-2.65-19.46.376-28 4.062l-2 2h-3v-2c6.87-3.304 13.63-6.034 21-8v-2h2z"/><path fill="#b89c91" d="M226 266c3.123.822 6.07 1.917 9.063 3.125l2.314.86c4.816 1.895 8.367 4.163 12.113 7.741C251 279 251 279 254 280l2-7h2c.25 2.25.25 2.25 0 5-2.248 2.79-3.577 3.86-7 5a264 264 0 0 0-3 5c-1.687 1.313-1.687 1.313-3 2l-2-3 1.375-1.187c1.901-2.121 2.687-4.143 3.625-6.813-4.216-3.834-8.643-5.736-13.937-7.75l-2.381-.957c-4.306-1.665-8.001-2.995-12.682-2.293-1.941 1.32-1.941 1.32-3.562 3.125l-1.758 1.918L212 275l-1.555 1.8A228 228 0 0 0 207 281c0-4.335 2.206-6.058 5-9.187l1.387-1.694c3.87-4.343 6.92-5.176 12.613-4.119"/><path fill="#bb2a2d" d="m266 58 1 3a67 67 0 0 1-4.437 6.063l-1.384 1.746c-2.139 2.694-4.314 5.358-6.488 8.023C245.818 87.752 240.598 97.499 242 112c.733 4.068 1.82 8.04 3 12-3.247-2.804-4.755-5.64-5.202-9.943-.746-16.31 2.783-27.763 13.772-39.987a405 405 0 0 1 3.906-4.182c3.432-3.66 6.13-7.49 8.524-11.888"/><path fill="#b42528" d="M229 96h1l.445 2.86c2.266 13.402 6.79 23.325 16.555 33.14-3.46 0-4.139-.757-6.516-3.099l-1.297-1.339-1.34-1.364c-5.45-5.687-11.608-12.817-11.972-21.01L226 103l2 1z"/><path fill="#c68380" d="M231 303c3.753 1.185 7.364 2.552 11 4.063 3.711 1.507 7.024 2.518 11 2.937v2l7 2v3c-6.055-1.254-11.426-3.342-17-6l2 2a88 88 0 0 1 1.125 6.625l.262 1.852c.212 1.506.413 3.015.613 4.523l-2-1c-1.262-4.475-1.262-4.475 0-7h-4v-2h3l-1-2-3-1-1.312-2.312c-2.137-3.402-4.305-4.583-7.688-6.688z"/><path fill="#bf2025" d="M250 283c2.867.573 3.861.861 6 3a55 55 0 0 1 1.375 3.375c1.323 3.25 2.939 5.31 5.625 7.625-6.109.78-9.24-.989-14.277-4.395-.285-.264-.285-.264-1.723-1.605 0-3.576 1.088-5.053 3-8"/><path fill="#f9f2f2" d="m251 205 2 3-.988 1.54c-2.03 3.196-4.01 6.32-5.574 9.773-1.584 2.96-2.383 4.283-5.438 5.687-2.727-.063-5.33-.462-8-1v-2l3-1-7-6 2-2c3.515 1.9 5.896 3.566 8 7v2c5.366-4.734 8.816-10.631 12-17"/><path fill="#f2d6d6" d="M297 100h1l.184 2.52.253 3.293.247 3.269C299 112 299 112 300 115l-3 6 .137 2.438c-.184 3.446-1.397 4.37-3.887 6.687l-2.11 2.008A87 87 0 0 1 285 137l-4-2 4-5v4c9.908-9.67 11.802-20.801 12-34"/><path fill="#c84e51" d="M327.764 140.562c9.78 3.526 9.78 3.526 11.236 6.438l-13 8-1-4-1-2 11-3c-8.39-3.402-16.053-5.007-25-6 4.345-3.984 12.615-1.078 17.764.562"/><path fill="#d57d7f" d="M282.688 136.313 285 137l-3 3 3 1-2 1h7l1 2-9 1 6 1v1c-1.895.082-3.791.14-5.687.188l-3.2.105c-3.467-.326-5.297-1.303-8.113-3.293l1.875-.25c2.125-.75 2.125-.75 3.188-2.625L277 139c1.922-2.654 2.345-3.076 5.688-2.687"/><path fill="#bb3135" d="M291 87c3.534 1.97 4.28 4.214 5.418 7.984 2.16 11.195 1.575 22.121-4.418 32.016a70 70 0 0 1-7 8c0-3.545.613-4.05 2.813-6.687 3.034-3.887 4.81-7.6 6.187-12.313l.555-1.883c1.649-7.84.715-14.879-2.68-22.058C291 90 291 90 291 87"/><path fill="#df9698" d="m266 143 1 4-2.012.184c-7.54.715-7.54.715-10.488 1.379-4.137.723-8.311.51-12.5.437 2.62-2.142 4.86-2.366 8.188-2.625l2.73-.227L255 146l-9-1v-1c6.959-1.574 12.95-2.288 20-1"/><path fill="#c06c69" d="M229 398c2.285 2.285 2.294 2.981 2.75 6.063 1.801 8.685 7.332 14.718 14.25 19.937-4.263 0-5.838-1.937-8.926-4.71-3.56-3.93-5.803-8.533-8.074-13.29l-6 9-2-2 1.496-2.012 1.941-2.675 1.934-2.637c1.619-2.66 2.237-4.615 2.629-7.676"/><path fill="#b8978d" d="M245 226h3l-1 10 3-1v16c-4.859-4.859-5.09-9.909-5.134-16.563.013-2.814.063-5.624.134-8.437"/><path fill="#bf282b" d="m304 113 2 2c-.5 5.151-4.627 8.414-8 12l-2.066 2.227c-3.502 3.654-6.07 6.107-10.934 7.773l2-1.937c6.757-6.814 12.353-13.631 17-22.063"/><path fill="#f2e1e0" d="m260 316 1 3 3 1v2l1.875.75c2.476 1.456 3.076 2.628 4.125 5.25-3.675-.76-3.675-.76-5.312-1.969-2.23-1.362-4.313-1.69-6.875-2.156l-2.731-.508L253 323c3.625-3 3.625-3 7-3l-1-3z"/><path fill="#c12d32" d="m320 102 2 1-2.52 1.574-3.293 2.114-1.658 1.029c-3.563 2.31-5.585 4.389-7.529 8.283-1.55-1.176-1.55-1.176-3-3 .145-2.48.145-2.48.813-5.187l.644-2.731L306 103l1.438 1.938C309 107 309 107 310 108l2-3v2l1.68-1.129 2.195-1.433 2.18-1.442z"/><path fill="#ad988a" d="M234 355h2c5.19 7.568 7.42 14.1 6.333 23.235-.924 4.895-3.072 9.357-5.333 13.765l-2-3h2v-6h2c.398-2.337.725-4.647 1-7l.277-2.047c.55-7.35-2.754-12.755-6.277-18.953"/><path fill="#d06365" d="m247 191 5 1c-1.048 3.145-1.706 3.791-4 6l-1.937 2.688C244 203 244 203 241.75 203.313L240 203c1.383-2.869 2.921-5.56 4.625-8.25l1.352-2.14z"/><path fill="#c76669" d="M248 222c4.215 3.532 5.653 6.338 7.176 11.574 1.391 4.095 3.612 7.727 5.824 11.426-3.639-1.73-6.802-3.531-9-7-.463-2.298-.625-4.509-.754-6.848-.33-2.893-1.602-4.793-3.246-7.152z"/><path fill="#bba99d" d="M223 281c5.707-.248 11.599-.002 17 2 1.797 2.078 1.797 2.078 3 4l-1.586-.934c-3.496-1.544-7.046-1.863-10.812-2.365-4.429-.614-4.429-.614-6.602-1.701l-.309 1.703c-.827 2.75-2.123 4.688-3.754 7.047-.547.8-1.095 1.598-1.66 2.422L217 295l-2-1 1.496-2.336 1.941-3.039.987-1.54c1.275-1.997 2.515-3.963 3.576-6.085"/><path fill="#f7e7e7" d="M241 121h2a88 88 0 0 1 3.313 5.188c2.518 4.134 5.04 7.608 8.687 10.812-4.124-1.392-7.152-3.454-10.375-6.312l-1.402-1.147c-1.309-1.154-1.309-1.154-3.223-3.541.21-2.793.21-2.793 1-5"/><path fill="#cf9f9b" d="M236 385h2l-1.125 2.125c-1.118 3.673-.44 5.43 1.125 8.875l2 1v3h-5c-2.315-4.494-2.065-7.206-1-12 .938-1.937.938-1.937 2-3"/><path fill="#de9191" d="M268 120c1.813 3.627 2.267 4.951 2.414 8.766l.117 2.695.094 2.789.117 2.836q.141 3.456.258 6.914h-3z"/><path fill="#db8e90" d="M270 358c2 2 2 2 2.195 3.945l-.07 2.18-.055 2.195L272 368h2c.081 1.457.14 2.916.188 4.375l.105 2.46L274 377l-3 2v-8h-2c-.1-3.504.28-6.578 1-10z"/><path fill="#cf6a6b" d="m229 141-1.68.411c-2.526.624-5.048 1.263-7.57 1.901l-2.645.647-2.558.654-2.349.587c-2.198.8-2.198.8-4.295 2.387C206 149 206 149 203 149v-2c20.47-10.195 20.47-10.195 26-6"/><path fill="#c34143" d="m348 94-4 5v-3l-1.481.443q-3.352.999-6.707 1.995l-2.33.697c-3.807 1.127-7.564 2.182-11.482 2.865 1.716-3.432 5.53-3.837 9.008-5.047C336.59 95.175 342.09 93.62 348 94"/><path fill="#f3dbdb" d="M230 213c4.406 1.346 6.43 3.194 9 7v2l2 1h-2l-1 2-5-1v-2l3-1-7-6z"/><path fill="#bf2d32" d="m304 137 3 4c-5.808 1.506-10.998 2.218-17 2 2.676-2.027 5.538-3.013 8.688-4.125l3.011-1.07z"/><path fill="#e5b4b3" d="M297 100h1l.184 2.52.253 3.293.247 3.269C299 112 299 112 300 115c-1.215 2.7-1.215 2.7-2.937 5.688l-1.715 3.011L294 126l-2-1 .84-1.66c3.533-7.732 3.937-14.98 4.16-23.34"/><path fill="#fcf8f8" d="M250 432c.125 2.875.125 2.875 0 6l-2 2-2-1 1 3-4 2c-.375-2.625-.375-2.625 0-6 4.5-6 4.5-6 7-6"/><path fill="#b3746f" d="m261 317 6 1v4h3l1 2h3l-1 4h-3a174 174 0 0 1-4-5 61 61 0 0 0-2.75-2.187L261 319z"/><path fill="#f4e7e7" d="M248 224c1.87 1.382 2.874 2.473 3.422 4.758.24 1.741.413 3.492.578 5.242l-5 2c-.185-8.446-.185-8.446 1-12"/><path fill="#b6a094" d="M246 219c2 2 2 2 2.125 4.625L248 226h-3v-2l-14 9-2-2 1.453-.886q3.246-1.99 6.484-3.989l2.288-1.395 2.177-1.347 2.016-1.238C245 221 245 221 246 219"/><path fill="#ba2227" d="M226 134c3.786.54 5.554 2.117 8 5v2c-6.625-.875-6.625-.875-10-2v-2h2z"/><path fill="#c62e33" d="M266 147a654 654 0 0 1-3.812 3.438l-2.145 1.933C258 154 258 154 255 155l-1-3-3-1a853 853 0 0 1 6.375-2.562l1.828-.749c4.57-1.802 4.57-1.802 6.797-.689"/><path fill="#d3a8a4" d="m277 407 2 4h-2v6l-7 2v-2h2l.938-2.875C274 411 274 411 275 409h2z"/><path fill="#cf7173" d="m245 137 2.125.438c8.154 1.595 8.154 1.595 11.625 1.437L261 139c1.313 1.5 1.313 1.5 2 3-4.201 1.201-6.641.75-10.687-.812l-2.887-1.083C247 139 247 139 245 137"/><path fill="#eac1c0" d="m246 328 3 1 1 7h2l-1 4h-3l-.375-3.25c-.41-2.927-1.087-5.187-2.625-7.75z"/><path fill="#d67172" d="M254 283c5.571 5.143 5.571 5.143 6 9h3l2 2-2 3c-5.648-3.891-7.36-7.4-9-14"/><path fill="#ba1e24" d="M229 96h1l1 14-5-2v-5l2 1z"/><path fill="#c33b3f" d="M197 98a333 333 0 0 1 4.375.375l2.46.21C206 99 206 99 208 101h-6l1.125 1.188c.875 1.812.875 1.812 0 4.5L202 109h-1l-.621-1.898-.816-2.477-.81-2.46C198 100 198 100 197 98"/><path fill="#c95054" d="M232 64c4.182 3.526 8.191 7.076 12 11l-1 2-8-8-1 7h-1z"/><path fill="#d27172" d="M282.688 136.313 285 137l-3 3 3 1-10 2c3.582-7.165 3.582-7.165 7.688-6.687"/><path fill="#c2b2a8" d="M224 250v2l-1.574.262c-5.356 1.079-7.907 2.56-11.426 6.738-1-2-1-2-.437-3.937 3.293-4.725 7.994-5.452 13.437-5.063"/><path fill="#f5e7e7" d="M249 220c2.875 1.246 4.697 2.093 6 5 .453 2.333.732 4.634 1 7h-3l-1.367-5.273C251 225 251 225 249 223z"/><path fill="#c74b4e" d="m290 72 1 2-1 1.813c-1.304 2.852-.89 4.22 0 7.187 1.063 2.313 1.063 2.313 2 4l-2 1-6-9 1-2h2c1.625-2.5 1.625-2.5 3-5"/><path fill="#af9688" d="m268 144 4 1c1.157 4.86.82 7.503-1 12h-1z"/><path fill="#bd3638" d="M304 59v4l-1.734.246c-2.965.987-4.372 2.565-6.516 4.816l-2.14 2.223L292 72c0-3 0-3 2.117-5.48q1.368-1.365 2.758-2.707l1.395-1.405C301.733 59 301.733 59 304 59"/><path fill="#e6b6b7" d="M290.313 135.813 292 137c-3.617 3.466-7.22 3.664-12 4 6.049-6.686 6.049-6.686 10.313-5.187"/><path fill="#bda096" d="M240 376c1.148 1.61 1.148 1.61 2 4-.676 2.268-1.375 4.139-2.375 6.25l-.75 1.68A268 268 0 0 1 237 392l-2-3h2v-6h2z"/><path fill="#c08582" d="M250 311c3.558.61 6.683 1.578 10 3v3c-7.527-1.33-7.527-1.33-9.5-4.125z"/><path fill="#c04c4e" d="m235 384 2 1-1.562 1.875c-2.073 4.506-1.21 8.331-.438 13.125l-2 1c-1.838-3.677-1.379-7.978-1-12 1.5-3.125 1.5-3.125 3-5"/><path fill="#c62d2f" d="M231 108c1.063 1.063 1.063 1.063 2 3-.123 2.402-.552 4.626-1 7-4.429-5.143-4.429-5.143-5-9l4 1z"/><path fill="#b49b8d" d="m249 212 1 2 2 1-3 7-2-1c.875-6.75.875-6.75 2-9"/><path fill="#d37c7f" d="m245 124 3 3 3-3c.79 2.767 1 5.137 1 8l1 2c-4.318-1.542-5.77-4.176-8-8z"/><path fill="#eccccd" d="m272 422 2 1c-1.312 2-1.312 2-3 4h-3v-2h-8v-1l2.117-.184 2.758-.253 2.742-.247C270 423 270 423 272 422"/><path fill="#c33538" d="M206 148c5.538-.37 5.538-.37 7.875 1.5L215 151l-2 3a698 698 0 0 1-3.5-2.437l-1.969-1.372L206 149z"/><path fill="#baa79b" d="m296 357 3 1-3 10-2-2c.242-2.164.242-2.164.875-4.625l.617-2.477z"/><path fill="#f6e4e4" d="M249 281h2c-1.161 4.355-2.077 6.646-6 9l-2-3 1.875-.75c2.476-1.456 3.076-2.628 4.125-5.25"/><path fill="#bb2127" d="M254 235c3.42 3.066 5.13 5.887 7 10-3.355-1.388-5.15-2.856-7-6-.187-2.25-.187-2.25 0-4"/><path fill="#ce7274" d="m255 414 10 2-1 3-9-2z"/><path fill="#ca4546" d="M247 409h3v2l4 1-1 3-6-3z"/><path fill="#cb5859" d="m320 102 2 1a972 972 0 0 1-4.875 3.5l-2.742 1.969C312 110 312 110 310 110l1-5 1 2 1.68-1.129 2.195-1.433 2.18-1.442z"/><path fill="#f9eded" d="M256 273h2c.25 2.25.25 2.25 0 5-1.875 2.313-1.875 2.313-4 4h-2v-2h2z"/><path fill="#b5a398" d="M273 258c3.395 1.38 4.725 2.647 6.313 5.938l1.05 2.09C281 268 281 268 280 271l-2.375-4.25-1.336-2.39A163 163 0 0 1 273 258"/><path fill="#f4e0e1" d="M245 129c4.348.483 6.188 2.884 9 6l1 2c-3.987-1.367-6.885-3.152-10-6z"/><path fill="#bb2025" d="M232 68h1v9h-4z"/><path fill="#c22d33" d="m236 207 3 1a376 376 0 0 1-2.875 3l-1.617 1.688C233 214 233 214 231 214c1.293-2.884 2.66-4.872 5-7"/><path fill="#c0353a" d="m337 147-5 4-5-2c2.956-2.782 6.186-2.144 10-2"/><path fill="#b71a22" d="M306 136h3v2l5-1-1 2c-2.314.588-4.62.74-7 1z"/><path fill="#d97d7f" d="m249 438 2 1v4l-1.875.438C247 444 247 444 245 445l1-6z"/><path fill="#bc7c79" d="M272 329c3 2 3 2 5 4-.375 2.125-.375 2.125-1 4h-2z"/><path fill="#c43134" d="m302 63 3 1-2 9h-1z"/><path fill="#ca8f8e" d="m269 323 5 1-1 4h-3z"/><path fill="#bb1b20" d="M251 234c1.063 1.875 1.063 1.875 2 4-1.109 2.217-2.494 4.036-4 6-.246-6.523-.246-6.523 1-8.937z"/><path fill="#c42c2e" d="M245 195h2c-1.477 4.677-1.477 4.677-4.125 6.313L241 202c1.074-2.915 1.778-4.778 4-7"/><path fill="#eec8c8" d="m234 396 6 1v3h-5z"/><path fill="#ce7174" d="M252 272h4c-.875 5.75-.875 5.75-2 8l-2-1 2-5h-2z"/><path fill="#faf6f6" d="M248 224c1.5 1.313 1.5 1.313 3 3v3h-3l-1 2z"/><path fill="#efdbda" d="m251 205 2 3-5 7-2-1z"/><path fill="#a48a7a" d="m263 194 2 2c-.375 2.125-.375 2.125-1 4l-3-1c.875-3.875.875-3.875 2-5"/><path fill="#f8ebec" d="m201 100 6 1-1 5c-3.906-3.809-3.906-3.809-5-5z"/><path fill="#d05f62" d="m261 291 4 3-2 3-4-3c1-2 1-2 2-3"/><path fill="#a08675" d="m207 261 2 1c-.564 3.27-1.5 4.826-4 7 .875-5.75.875-5.75 2-8"/><path fill="#e9b6ba" d="M252 319h7c-1.25 1.5-1.25 1.5-3 3-2.187.188-2.187.188-4 0z"/><path fill="#a15b52" d="M245 226h3l-2 11h-1z"/><path fill="#f7e6e5" d="m296 123 1 3-4 3-2-2 3-1v-2z"/><path fill="#c63136" d="m231 76 2 1-1 4-2-2-1 2h-2c.313-1.937.313-1.937 1-4z"/><path fill="#faf6f6" d="M276 410h1v7l-2 1c-.93-2.606-1.15-3.642-.062-6.25z"/><path fill="#c43738" d="m236 120 4 4-2 2-4-5z"/><path fill="#cb4d4e" d="m348 94-4 5v-3l-3-1c2.463-1.231 4.28-1.072 7-1"/><path fill="#a48a79" d="m221 414 1 2-5 5c.564-3.27 1.5-4.826 4-7"/><path fill="#faf4f4" d="M236 385h2l-1 4h-2l-1 4c.875-6.875.875-6.875 2-8"/><path fill="#c33a3d" d="M276 350c1.5.75 1.5.75 3 2 .188 2.125.188 2.125 0 4l-3-1z"/><path fill="#cf6d6d" d="m255 342 2 2 2-2-1 4h-4z"/><path fill="#c33337" d="M258 279c-1 3-1 3-2.937 4.25L253 284l-2-1c1.467-2.934 3.74-4 7-4"/><path fill="#d5c9c2" d="M212 253h2l-1 5-3 1z"/><path fill="#b29d8f" d="M268 182h3l1 4-5 1z"/><path fill="#f8ebeb" d="m285 140 3 1c-2 2-2 2-3.727 2.195L279 143z"/><path fill="#f5d9d7" d="M251 128c2.248 2.052 3.002 3.007 4 6l-4-2z"/><path fill="#eac5c5" d="M241 121h2c1.688 2.375 1.688 2.375 3 5l-1 2c-4-4.75-4-4.75-4-7"/><path fill="#b61b1f" d="m203 104 3 2-1 3h-3z"/><path fill="#b81f24" d="m247 416 4 2v2l-4-1z"/><path fill="#a18877" d="m270 185 1 3-3 3-1-4z"/><path fill="#a18674" d="M273 170h1v7l-3-2c.875-3.875.875-3.875 2-5"/><path fill="#c33338" d="m328 116 1 3c-1.312 2.188-1.312 2.188-3 4h-2c1.188-2.46 2.433-4.761 4-7"/><path fill="#f5e7e7" d="M238 116h3l1 5-2 1z"/><path fill="#be4a4d" d="M275 339h2l1 5-3-1z"/><path fill="#d57677" d="m246 328 3 1-1 3-3-1z"/><path fill="#c22c31" d="M238 217h2l2 4-3 1z"/><path fill="#ab8f80" d="M247 216h2c.625 1.875.625 1.875 1 4l-2 2c-1-1-1-1-1.062-3.562z"/><path fill="#b86e6a" d="M255 314h5v3l-5-2z"/><path fill="#dfbbba" d="m245 286 3 1-3 3-2-3z"/><path fill="#c53335" d="m257 239 4 5h-3z"/><path fill="#ab9486" d="M265 190h1l1 6h-3z"/><path fill="#d06767" d="M207 145v3l-4 1v-2z"/><path fill="#e49da0" d="m311 105 1 2 3 1-5 2z"/><path fill="#cd5d62" d="m242 91 2 4-2 3c-.934-3.01-1.044-3.867 0-7"/><path fill="#bc4043" d="m272 63 4 3-1 3c-3-3.75-3-3.75-3-6"/><path fill="#c24a4e" d="M302 59h2v4l-4-2z"/><path fill="#d89c9d" d="M247 409h3l-1 4-2-1z"/><path fill="#c03c3e" d="m260 348 3 1v3l-3-1z"/><path fill="#d4787a" d="M249 337h3l-1 3h-3z"/><path fill="#ba191f" d="m251 218 3 1v3l-4-2z"/><path fill="#ecdedd" d="m230 213 4 2-2 2-3-3z"/><path fill="#b91622" d="m264 146 2 1c-1.375 1.5-1.375 1.5-3 3h-2l1-3z"/><path fill="#cc4748" d="m291 87 3 2-2 4z"/><path fill="#c01a21" d="m230 78 2 1-1 3-3-1z"/><path fill="#d67e7e" d="m251 428 6 1v1l-6 1z"/><path fill="#dfa3a4" d="M261 416h4l-1 3h-2z"/><path fill="#a28776" d="m251 210 2 1-1 3h-2z"/><path fill="#c93d41" d="m260 148 2 3h-3l-2-2z"/><path fill="#db6d6e" d="m271 143 6 1-4 2z"/><path fill="#c43238" d="M311 133v3l-2 1-2-2z"/><path fill="#b5191f" d="m234 117 2 1v3l-3-1z"/><path fill="#ba1c23" d="m335 107 1 3-3 2c.875-3.875.875-3.875 2-5"/><path fill="#c23033" d="M244 88h2l-2 5c-.562-1.937-.562-1.937-1-4z"/><path fill="#f4eeed" d="m272 418 3 1-4 2z"/><path fill="#c9393b" d="m244 415 4 1-3 2z"/><path fill="#b0292b" d="m252 319 3 1v2h-3z"/><path fill="#bcada2" d="m273 258 4 2-2 2z"/><path fill="#ca696c" d="M229 219h3l-1 3h-2z"/><path fill="#d76b6e" d="m264 143 3 1-1 3z"/><path fill="#c85559" d="m277 139 2 2-4 2z"/><path fill="#f6e1df" d="m285 128 3 1-3 3z"/><path fill="#ca4141" d="m299 121 2 3-4 1z"/><path fill="#f5eceb" d="M236 385h2l-1 3h-2z"/><path fill="#b7161d" d="M245 195h2l-1 3h-2z"/><path fill="#b19d8e" d="m216 419 2 3h-3z"/><path fill="#c7383a" d="m268 264 3 1-2 2z"/><path fill="#cb4d4e" d="m251 77 2 2h-3z"/><path fill="#c75457" d="m257 70 2 2h-3z"/></svg>